<?xml version="1.0" encoding="UTF-8"?>
<svg xmlns="http://www.w3.org/2000/svg" xmlns:xlink="http://www.w3.org/1999/xlink" width="854" height="480" viewBox="0 0 854 480">
<defs>
<g>
<g id="glyph-0-0">
<path d="M 3.019531 0 L 0.332031 0 L 0.332031 -0.296875 C 0.40625 -0.304688 0.515625 -0.3125 0.660156 -0.324219 C 0.804688 -0.335938 0.902344 -0.351562 0.960938 -0.375 C 1.054688 -0.410156 1.121094 -0.460938 1.164062 -0.523438 C 1.207031 -0.585938 1.226562 -0.675781 1.226562 -0.785156 L 1.226562 -5.109375 C 1.226562 -5.207031 1.210938 -5.289062 1.179688 -5.355469 C 1.152344 -5.421875 1.078125 -5.476562 0.960938 -5.519531 C 0.878906 -5.554688 0.773438 -5.585938 0.644531 -5.613281 C 0.519531 -5.644531 0.414062 -5.660156 0.332031 -5.667969 L 0.332031 -5.964844 L 3.019531 -5.964844 L 3.019531 -5.667969 C 2.933594 -5.664062 2.828125 -5.652344 2.707031 -5.636719 C 2.585938 -5.617188 2.480469 -5.59375 2.390625 -5.566406 C 2.285156 -5.53125 2.214844 -5.476562 2.179688 -5.402344 C 2.140625 -5.328125 2.125 -5.242188 2.125 -5.152344 L 2.125 -0.832031 C 2.125 -0.738281 2.144531 -0.65625 2.183594 -0.585938 C 2.226562 -0.515625 2.292969 -0.457031 2.390625 -0.417969 C 2.453125 -0.394531 2.546875 -0.371094 2.679688 -0.34375 C 2.8125 -0.316406 2.925781 -0.300781 3.019531 -0.296875 Z "/>
</g>
<g id="glyph-0-1">
<path d="M 4.882812 0 L 2.855469 0 L 2.855469 -0.277344 C 2.917969 -0.28125 2.988281 -0.289062 3.066406 -0.292969 C 3.144531 -0.300781 3.207031 -0.3125 3.257812 -0.328125 C 3.335938 -0.351562 3.394531 -0.398438 3.433594 -0.460938 C 3.472656 -0.523438 3.488281 -0.605469 3.488281 -0.707031 L 3.488281 -2.839844 C 3.488281 -3.132812 3.421875 -3.359375 3.28125 -3.519531 C 3.140625 -3.679688 2.972656 -3.757812 2.773438 -3.757812 C 2.625 -3.757812 2.488281 -3.734375 2.363281 -3.6875 C 2.242188 -3.644531 2.132812 -3.585938 2.035156 -3.519531 C 1.941406 -3.453125 1.871094 -3.386719 1.816406 -3.3125 C 1.757812 -3.238281 1.71875 -3.175781 1.695312 -3.132812 L 1.695312 -0.75 C 1.695312 -0.652344 1.714844 -0.574219 1.753906 -0.511719 C 1.792969 -0.453125 1.851562 -0.402344 1.929688 -0.371094 C 1.988281 -0.34375 2.050781 -0.320312 2.121094 -0.308594 C 2.191406 -0.292969 2.261719 -0.28125 2.332031 -0.277344 L 2.332031 0 L 0.300781 0 L 0.300781 -0.277344 C 0.367188 -0.28125 0.433594 -0.289062 0.503906 -0.292969 C 0.570312 -0.300781 0.628906 -0.3125 0.679688 -0.328125 C 0.757812 -0.351562 0.816406 -0.398438 0.855469 -0.460938 C 0.894531 -0.523438 0.914062 -0.605469 0.914062 -0.707031 L 0.914062 -3.261719 C 0.914062 -3.359375 0.890625 -3.445312 0.851562 -3.527344 C 0.8125 -3.605469 0.753906 -3.671875 0.679688 -3.722656 C 0.628906 -3.753906 0.566406 -3.777344 0.492188 -3.792969 C 0.417969 -3.808594 0.339844 -3.820312 0.257812 -3.824219 L 0.257812 -4.105469 L 1.636719 -4.195312 L 1.695312 -4.136719 L 1.695312 -3.554688 L 1.714844 -3.554688 C 1.78125 -3.621094 1.867188 -3.699219 1.96875 -3.792969 C 2.070312 -3.886719 2.164062 -3.964844 2.253906 -4.023438 C 2.355469 -4.089844 2.480469 -4.148438 2.625 -4.191406 C 2.765625 -4.238281 2.925781 -4.257812 3.105469 -4.257812 C 3.503906 -4.257812 3.800781 -4.136719 3.992188 -3.886719 C 4.183594 -3.640625 4.28125 -3.308594 4.28125 -2.898438 L 4.28125 -0.738281 C 4.28125 -0.640625 4.296875 -0.5625 4.332031 -0.503906 C 4.363281 -0.441406 4.421875 -0.394531 4.503906 -0.363281 C 4.570312 -0.332031 4.628906 -0.3125 4.675781 -0.300781 C 4.726562 -0.292969 4.792969 -0.28125 4.882812 -0.277344 Z "/>
</g>
<g id="glyph-0-2">
<path d="M 2.863281 -0.179688 C 2.679688 -0.105469 2.507812 -0.0429688 2.347656 0.0117188 C 2.183594 0.0625 1.984375 0.0898438 1.75 0.0898438 C 1.402344 0.0898438 1.15625 0 1.015625 -0.175781 C 0.875 -0.351562 0.804688 -0.597656 0.804688 -0.917969 L 0.804688 -3.726562 L 0.0546875 -3.726562 L 0.0546875 -4.128906 L 0.820312 -4.128906 L 0.820312 -5.417969 L 1.585938 -5.417969 L 1.585938 -4.128906 L 2.773438 -4.128906 L 2.773438 -3.726562 L 1.59375 -3.726562 L 1.59375 -1.410156 C 1.59375 -1.234375 1.601562 -1.089844 1.613281 -0.972656 C 1.625 -0.855469 1.65625 -0.753906 1.703125 -0.667969 C 1.746094 -0.585938 1.816406 -0.527344 1.90625 -0.484375 C 1.996094 -0.441406 2.113281 -0.421875 2.265625 -0.421875 C 2.335938 -0.421875 2.4375 -0.425781 2.574219 -0.4375 C 2.710938 -0.453125 2.808594 -0.46875 2.863281 -0.488281 Z "/>
</g>
<g id="glyph-0-3">
<path d="M 3.984375 -0.976562 C 3.8125 -0.644531 3.578125 -0.382812 3.289062 -0.183594 C 2.996094 0.0117188 2.660156 0.109375 2.28125 0.109375 C 1.949219 0.109375 1.65625 0.0507812 1.40625 -0.0664062 C 1.15625 -0.183594 0.949219 -0.34375 0.785156 -0.546875 C 0.625 -0.75 0.503906 -0.984375 0.421875 -1.253906 C 0.34375 -1.523438 0.300781 -1.804688 0.300781 -2.105469 C 0.300781 -2.375 0.34375 -2.640625 0.429688 -2.898438 C 0.515625 -3.160156 0.640625 -3.390625 0.808594 -3.597656 C 0.96875 -3.796875 1.164062 -3.957031 1.402344 -4.082031 C 1.640625 -4.203125 1.90625 -4.261719 2.199219 -4.261719 C 2.5 -4.261719 2.761719 -4.214844 2.976562 -4.121094 C 3.191406 -4.023438 3.367188 -3.894531 3.503906 -3.730469 C 3.632812 -3.574219 3.726562 -3.386719 3.789062 -3.175781 C 3.851562 -2.960938 3.886719 -2.730469 3.886719 -2.480469 L 3.886719 -2.203125 L 1.140625 -2.203125 C 1.140625 -1.929688 1.164062 -1.683594 1.21875 -1.460938 C 1.269531 -1.238281 1.351562 -1.042969 1.464844 -0.875 C 1.574219 -0.710938 1.714844 -0.585938 1.890625 -0.488281 C 2.070312 -0.394531 2.277344 -0.347656 2.523438 -0.347656 C 2.773438 -0.347656 2.988281 -0.40625 3.167969 -0.523438 C 3.347656 -0.640625 3.523438 -0.851562 3.691406 -1.15625 L 3.984375 -0.976562 M 3.054688 -2.554688 C 3.054688 -2.710938 3.042969 -2.878906 3.015625 -3.058594 C 2.988281 -3.238281 2.949219 -3.386719 2.886719 -3.507812 C 2.824219 -3.636719 2.734375 -3.742188 2.625 -3.820312 C 2.511719 -3.902344 2.367188 -3.945312 2.191406 -3.945312 C 1.894531 -3.945312 1.652344 -3.820312 1.457031 -3.578125 C 1.261719 -3.332031 1.15625 -2.992188 1.140625 -2.554688 Z "/>
</g>
<g id="glyph-0-4">
<path d="M 3.476562 -3.613281 C 3.476562 -3.46875 3.441406 -3.34375 3.371094 -3.230469 C 3.300781 -3.121094 3.195312 -3.066406 3.046875 -3.066406 C 2.890625 -3.066406 2.769531 -3.105469 2.6875 -3.1875 C 2.605469 -3.269531 2.566406 -3.359375 2.566406 -3.457031 C 2.566406 -3.519531 2.570312 -3.574219 2.578125 -3.625 C 2.589844 -3.675781 2.597656 -3.726562 2.605469 -3.777344 C 2.476562 -3.777344 2.320312 -3.722656 2.144531 -3.617188 C 1.96875 -3.507812 1.816406 -3.359375 1.695312 -3.160156 L 1.695312 -0.75 C 1.695312 -0.648438 1.714844 -0.570312 1.75 -0.507812 C 1.789062 -0.445312 1.847656 -0.402344 1.929688 -0.371094 C 2 -0.34375 2.089844 -0.320312 2.199219 -0.308594 C 2.3125 -0.292969 2.40625 -0.28125 2.488281 -0.277344 L 2.488281 0 L 0.300781 0 L 0.300781 -0.277344 C 0.367188 -0.28125 0.433594 -0.289062 0.503906 -0.292969 C 0.570312 -0.300781 0.628906 -0.3125 0.679688 -0.328125 C 0.757812 -0.351562 0.816406 -0.398438 0.855469 -0.460938 C 0.894531 -0.523438 0.914062 -0.605469 0.914062 -0.707031 L 0.914062 -3.261719 C 0.914062 -3.351562 0.890625 -3.433594 0.851562 -3.519531 C 0.8125 -3.601562 0.753906 -3.671875 0.679688 -3.722656 C 0.628906 -3.753906 0.566406 -3.777344 0.492188 -3.792969 C 0.417969 -3.808594 0.339844 -3.820312 0.257812 -3.824219 L 0.257812 -4.105469 L 1.636719 -4.195312 L 1.695312 -4.136719 L 1.695312 -3.554688 L 1.714844 -3.554688 C 1.890625 -3.78125 2.082031 -3.953125 2.296875 -4.070312 C 2.507812 -4.1875 2.703125 -4.246094 2.878906 -4.246094 C 3.054688 -4.246094 3.199219 -4.1875 3.3125 -4.074219 C 3.421875 -3.960938 3.476562 -3.804688 3.476562 -3.613281 Z "/>
</g>
<g id="glyph-0-5">
<path d="M 4.398438 -3.890625 C 4.273438 -3.867188 4.152344 -3.820312 4.039062 -3.753906 C 3.925781 -3.683594 3.828125 -3.5625 3.746094 -3.390625 C 3.582031 -3.011719 3.410156 -2.621094 3.234375 -2.214844 C 3.054688 -1.804688 2.871094 -1.378906 2.683594 -0.929688 C 2.625 -0.800781 2.566406 -0.648438 2.503906 -0.472656 C 2.441406 -0.292969 2.382812 -0.125 2.328125 0.0390625 L 2 0.0390625 C 1.734375 -0.621094 1.488281 -1.222656 1.265625 -1.765625 C 1.042969 -2.304688 0.808594 -2.863281 0.566406 -3.429688 C 0.511719 -3.558594 0.421875 -3.660156 0.296875 -3.730469 C 0.171875 -3.804688 0.046875 -3.847656 -0.078125 -3.867188 L -0.078125 -4.144531 L 1.839844 -4.144531 L 1.839844 -3.851562 C 1.753906 -3.847656 1.648438 -3.832031 1.523438 -3.796875 C 1.398438 -3.765625 1.335938 -3.722656 1.335938 -3.667969 C 1.335938 -3.65625 1.339844 -3.636719 1.355469 -3.601562 C 1.371094 -3.566406 1.382812 -3.527344 1.398438 -3.480469 C 1.511719 -3.195312 1.675781 -2.796875 1.882812 -2.285156 C 2.09375 -1.773438 2.265625 -1.359375 2.394531 -1.046875 C 2.496094 -1.285156 2.621094 -1.585938 2.777344 -1.945312 C 2.929688 -2.304688 3.09375 -2.703125 3.269531 -3.144531 C 3.296875 -3.222656 3.324219 -3.292969 3.351562 -3.359375 C 3.375 -3.421875 3.386719 -3.488281 3.386719 -3.558594 C 3.386719 -3.605469 3.363281 -3.648438 3.316406 -3.683594 C 3.273438 -3.722656 3.214844 -3.757812 3.152344 -3.785156 C 3.085938 -3.8125 3.023438 -3.832031 2.960938 -3.847656 C 2.902344 -3.859375 2.851562 -3.871094 2.8125 -3.875 L 2.8125 -4.144531 L 4.398438 -4.144531 Z "/>
</g>
<g id="glyph-0-6">
<path d="M 2.3125 0 L 0.3125 0 L 0.3125 -0.277344 C 0.375 -0.28125 0.441406 -0.289062 0.511719 -0.292969 C 0.578125 -0.300781 0.640625 -0.3125 0.691406 -0.328125 C 0.769531 -0.351562 0.824219 -0.398438 0.863281 -0.460938 C 0.902344 -0.523438 0.921875 -0.605469 0.921875 -0.707031 L 0.921875 -3.261719 C 0.921875 -3.351562 0.902344 -3.433594 0.859375 -3.507812 C 0.820312 -3.582031 0.761719 -3.644531 0.691406 -3.695312 C 0.636719 -3.730469 0.558594 -3.757812 0.457031 -3.78125 C 0.355469 -3.804688 0.265625 -3.820312 0.179688 -3.824219 L 0.179688 -4.105469 L 1.644531 -4.195312 L 1.703125 -4.136719 L 1.703125 -0.757812 C 1.703125 -0.660156 1.722656 -0.578125 1.757812 -0.511719 C 1.796875 -0.449219 1.855469 -0.402344 1.9375 -0.371094 C 1.996094 -0.34375 2.058594 -0.324219 2.117188 -0.308594 C 2.175781 -0.292969 2.238281 -0.28125 2.3125 -0.277344 L 2.3125 0 M 1.785156 -5.832031 C 1.785156 -5.671875 1.734375 -5.53125 1.628906 -5.414062 C 1.523438 -5.292969 1.394531 -5.234375 1.242188 -5.234375 C 1.097656 -5.234375 0.972656 -5.292969 0.867188 -5.40625 C 0.761719 -5.519531 0.710938 -5.648438 0.710938 -5.792969 C 0.710938 -5.949219 0.761719 -6.082031 0.867188 -6.199219 C 0.972656 -6.3125 1.097656 -6.371094 1.242188 -6.371094 C 1.398438 -6.371094 1.53125 -6.316406 1.632812 -6.207031 C 1.734375 -6.101562 1.785156 -5.972656 1.785156 -5.832031 Z "/>
</g>
<g id="glyph-0-7">
<path d="M 6.480469 -3.875 C 6.359375 -3.867188 6.234375 -3.816406 6.097656 -3.730469 C 5.960938 -3.640625 5.863281 -3.511719 5.800781 -3.339844 C 5.660156 -2.925781 5.53125 -2.535156 5.40625 -2.167969 C 5.28125 -1.796875 5.140625 -1.382812 4.988281 -0.925781 C 4.9375 -0.777344 4.886719 -0.621094 4.832031 -0.453125 C 4.78125 -0.285156 4.734375 -0.125 4.691406 0.03125 L 4.332031 0.03125 L 3.214844 -3.027344 L 2.09375 0.03125 L 1.75 0.03125 C 1.539062 -0.59375 1.332031 -1.210938 1.132812 -1.824219 C 0.933594 -2.433594 0.753906 -2.96875 0.601562 -3.421875 C 0.554688 -3.554688 0.472656 -3.65625 0.34375 -3.734375 C 0.21875 -3.808594 0.0976562 -3.855469 -0.0195312 -3.867188 L -0.0195312 -4.144531 L 1.828125 -4.144531 L 1.828125 -3.851562 C 1.734375 -3.847656 1.636719 -3.832031 1.527344 -3.804688 C 1.417969 -3.777344 1.367188 -3.730469 1.367188 -3.667969 C 1.367188 -3.65625 1.371094 -3.632812 1.378906 -3.59375 C 1.390625 -3.558594 1.402344 -3.519531 1.414062 -3.476562 C 1.503906 -3.183594 1.605469 -2.855469 1.71875 -2.492188 C 1.835938 -2.128906 1.980469 -1.660156 2.160156 -1.082031 L 3.21875 -4.0625 L 3.625 -4.0625 L 4.703125 -1.121094 C 4.824219 -1.496094 4.945312 -1.859375 5.0625 -2.210938 C 5.183594 -2.5625 5.289062 -2.890625 5.378906 -3.199219 C 5.398438 -3.273438 5.417969 -3.339844 5.433594 -3.398438 C 5.453125 -3.460938 5.460938 -3.519531 5.460938 -3.578125 C 5.460938 -3.628906 5.441406 -3.671875 5.394531 -3.710938 C 5.351562 -3.75 5.296875 -3.785156 5.230469 -3.808594 C 5.175781 -3.832031 5.113281 -3.847656 5.046875 -3.859375 C 4.980469 -3.871094 4.933594 -3.875 4.902344 -3.875 L 4.902344 -4.144531 L 6.480469 -4.144531 Z "/>
</g>
<g id="glyph-0-8">
</g>
<g id="glyph-0-9">
<path d="M 5.230469 -5.257812 C 5.492188 -4.984375 5.699219 -4.652344 5.847656 -4.265625 C 5.996094 -3.878906 6.070312 -3.449219 6.070312 -2.976562 C 6.070312 -2.601562 6.023438 -2.253906 5.925781 -1.933594 C 5.824219 -1.613281 5.6875 -1.328125 5.507812 -1.078125 C 5.335938 -0.835938 5.132812 -0.625 4.898438 -0.445312 C 4.664062 -0.265625 4.398438 -0.125 4.109375 -0.0195312 C 4.113281 0.289062 4.222656 0.5625 4.441406 0.808594 C 4.65625 1.054688 4.886719 1.175781 5.136719 1.175781 C 5.367188 1.175781 5.542969 1.167969 5.664062 1.152344 C 5.785156 1.140625 5.882812 1.125 5.960938 1.109375 L 5.960938 1.441406 C 5.835938 1.480469 5.679688 1.515625 5.488281 1.558594 C 5.300781 1.597656 5.035156 1.617188 4.699219 1.617188 C 4.511719 1.617188 4.328125 1.589844 4.148438 1.535156 C 3.96875 1.480469 3.808594 1.394531 3.660156 1.273438 C 3.515625 1.152344 3.394531 1 3.296875 0.816406 C 3.203125 0.628906 3.140625 0.402344 3.109375 0.132812 C 2.710938 0.121094 2.339844 0.0351562 1.996094 -0.125 C 1.65625 -0.28125 1.363281 -0.5 1.117188 -0.773438 C 0.871094 -1.050781 0.679688 -1.375 0.542969 -1.75 C 0.40625 -2.125 0.335938 -2.535156 0.335938 -2.976562 C 0.335938 -3.460938 0.410156 -3.894531 0.5625 -4.273438 C 0.714844 -4.652344 0.921875 -4.980469 1.191406 -5.257812 C 1.453125 -5.535156 1.757812 -5.746094 2.109375 -5.890625 C 2.457031 -6.035156 2.824219 -6.109375 3.203125 -6.109375 C 3.597656 -6.109375 3.972656 -6.035156 4.320312 -5.886719 C 4.671875 -5.738281 4.976562 -5.527344 5.230469 -5.257812 M 4.605469 -1.03125 C 4.761719 -1.285156 4.875 -1.574219 4.945312 -1.894531 C 5.019531 -2.21875 5.054688 -2.578125 5.054688 -2.976562 C 5.054688 -3.386719 5.015625 -3.761719 4.933594 -4.105469 C 4.855469 -4.445312 4.738281 -4.738281 4.582031 -4.976562 C 4.429688 -5.214844 4.234375 -5.402344 4.003906 -5.535156 C 3.769531 -5.667969 3.503906 -5.734375 3.203125 -5.734375 C 2.867188 -5.734375 2.582031 -5.65625 2.347656 -5.503906 C 2.109375 -5.347656 1.917969 -5.144531 1.769531 -4.886719 C 1.628906 -4.640625 1.527344 -4.351562 1.457031 -4.019531 C 1.386719 -3.6875 1.355469 -3.339844 1.355469 -2.976562 C 1.355469 -2.574219 1.390625 -2.207031 1.464844 -1.882812 C 1.535156 -1.558594 1.652344 -1.269531 1.808594 -1.015625 C 1.960938 -0.769531 2.148438 -0.578125 2.378906 -0.4375 C 2.609375 -0.300781 2.882812 -0.230469 3.203125 -0.230469 C 3.503906 -0.230469 3.773438 -0.300781 4.015625 -0.441406 C 4.257812 -0.582031 4.453125 -0.777344 4.605469 -1.03125 Z "/>
</g>
<g id="glyph-0-10">
<path d="M 1.921875 -3.589844 C 1.921875 -3.433594 1.863281 -3.296875 1.75 -3.1875 C 1.636719 -3.074219 1.503906 -3.019531 1.34375 -3.019531 C 1.1875 -3.019531 1.054688 -3.074219 0.941406 -3.1875 C 0.824219 -3.296875 0.769531 -3.433594 0.769531 -3.589844 C 0.769531 -3.746094 0.824219 -3.878906 0.9375 -3.992188 C 1.050781 -4.105469 1.1875 -4.164062 1.34375 -4.164062 C 1.503906 -4.164062 1.640625 -4.105469 1.753906 -3.992188 C 1.867188 -3.878906 1.921875 -3.746094 1.921875 -3.589844 M 1.921875 -0.484375 C 1.921875 -0.328125 1.863281 -0.191406 1.75 -0.0820312 C 1.636719 0.0273438 1.503906 0.0859375 1.34375 0.0859375 C 1.1875 0.0859375 1.054688 0.0273438 0.941406 -0.0820312 C 0.824219 -0.191406 0.769531 -0.328125 0.769531 -0.484375 C 0.769531 -0.640625 0.824219 -0.777344 0.941406 -0.890625 C 1.054688 -1.003906 1.1875 -1.058594 1.34375 -1.058594 C 1.503906 -1.058594 1.636719 -1.003906 1.75 -0.890625 C 1.863281 -0.777344 1.921875 -0.640625 1.921875 -0.484375 Z "/>
</g>
<g id="glyph-0-11">
<path d="M 5.199219 -1.773438 L 5.074219 0 L 0.410156 0 L 0.410156 -0.296875 C 0.480469 -0.304688 0.578125 -0.3125 0.703125 -0.328125 C 0.832031 -0.34375 0.921875 -0.359375 0.972656 -0.382812 C 1.054688 -0.417969 1.117188 -0.472656 1.152344 -0.542969 C 1.191406 -0.613281 1.210938 -0.703125 1.210938 -0.8125 L 1.210938 -5.082031 C 1.210938 -5.179688 1.195312 -5.261719 1.164062 -5.335938 C 1.128906 -5.410156 1.066406 -5.46875 0.972656 -5.511719 C 0.90625 -5.546875 0.816406 -5.578125 0.699219 -5.609375 C 0.582031 -5.644531 0.488281 -5.660156 0.410156 -5.667969 L 0.410156 -5.964844 L 2.929688 -5.964844 L 2.929688 -5.667969 C 2.851562 -5.664062 2.75 -5.652344 2.625 -5.625 C 2.5 -5.601562 2.410156 -5.578125 2.355469 -5.558594 C 2.257812 -5.523438 2.195312 -5.46875 2.160156 -5.386719 C 2.125 -5.304688 2.105469 -5.21875 2.105469 -5.125 L 2.105469 -1.117188 C 2.105469 -0.933594 2.117188 -0.789062 2.132812 -0.6875 C 2.152344 -0.585938 2.195312 -0.507812 2.261719 -0.449219 C 2.328125 -0.398438 2.421875 -0.367188 2.550781 -0.351562 C 2.675781 -0.335938 2.855469 -0.328125 3.085938 -0.328125 C 3.191406 -0.328125 3.296875 -0.332031 3.410156 -0.335938 C 3.523438 -0.34375 3.628906 -0.351562 3.730469 -0.371094 C 3.828125 -0.386719 3.917969 -0.410156 4 -0.4375 C 4.082031 -0.46875 4.144531 -0.507812 4.183594 -0.550781 C 4.296875 -0.679688 4.433594 -0.875 4.585938 -1.136719 C 4.738281 -1.398438 4.84375 -1.613281 4.902344 -1.773438 Z "/>
</g>
<g id="glyph-0-12">
<path d="M 4.230469 -0.0742188 C 4.097656 -0.0273438 3.980469 0.0117188 3.882812 0.0390625 C 3.785156 0.0703125 3.671875 0.0859375 3.542969 0.0859375 C 3.324219 0.0859375 3.152344 0.03125 3.019531 -0.0703125 C 2.890625 -0.171875 2.808594 -0.320312 2.769531 -0.515625 L 2.746094 -0.515625 C 2.5625 -0.316406 2.367188 -0.160156 2.160156 -0.0546875 C 1.949219 0.0507812 1.699219 0.105469 1.402344 0.105469 C 1.09375 0.105469 0.835938 0.0117188 0.636719 -0.179688 C 0.4375 -0.371094 0.335938 -0.621094 0.335938 -0.929688 C 0.335938 -1.089844 0.359375 -1.230469 0.402344 -1.359375 C 0.449219 -1.484375 0.515625 -1.597656 0.605469 -1.699219 C 0.675781 -1.78125 0.769531 -1.859375 0.882812 -1.921875 C 0.996094 -1.988281 1.105469 -2.042969 1.207031 -2.082031 C 1.332031 -2.128906 1.589844 -2.21875 1.972656 -2.347656 C 2.359375 -2.476562 2.621094 -2.574219 2.753906 -2.648438 L 2.753906 -3.066406 C 2.753906 -3.101562 2.746094 -3.171875 2.730469 -3.273438 C 2.714844 -3.378906 2.683594 -3.476562 2.632812 -3.570312 C 2.574219 -3.671875 2.496094 -3.761719 2.394531 -3.839844 C 2.292969 -3.917969 2.148438 -3.957031 1.960938 -3.957031 C 1.832031 -3.957031 1.710938 -3.933594 1.601562 -3.890625 C 1.488281 -3.847656 1.410156 -3.800781 1.367188 -3.753906 C 1.367188 -3.699219 1.378906 -3.617188 1.40625 -3.507812 C 1.433594 -3.398438 1.445312 -3.296875 1.445312 -3.203125 C 1.445312 -3.105469 1.402344 -3.015625 1.3125 -2.933594 C 1.226562 -2.851562 1.101562 -2.8125 0.945312 -2.8125 C 0.804688 -2.8125 0.703125 -2.863281 0.636719 -2.960938 C 0.570312 -3.0625 0.539062 -3.171875 0.539062 -3.296875 C 0.539062 -3.425781 0.582031 -3.546875 0.675781 -3.667969 C 0.765625 -3.785156 0.882812 -3.890625 1.03125 -3.980469 C 1.15625 -4.058594 1.308594 -4.125 1.488281 -4.179688 C 1.667969 -4.234375 1.84375 -4.261719 2.015625 -4.261719 C 2.25 -4.261719 2.453125 -4.246094 2.628906 -4.214844 C 2.804688 -4.183594 2.964844 -4.113281 3.105469 -4.007812 C 3.25 -3.902344 3.359375 -3.761719 3.433594 -3.585938 C 3.507812 -3.40625 3.542969 -3.175781 3.542969 -2.898438 C 3.542969 -2.496094 3.539062 -2.140625 3.53125 -1.832031 C 3.523438 -1.519531 3.519531 -1.183594 3.519531 -0.816406 C 3.519531 -0.707031 3.539062 -0.621094 3.574219 -0.554688 C 3.613281 -0.492188 3.671875 -0.4375 3.75 -0.390625 C 3.792969 -0.367188 3.859375 -0.351562 3.949219 -0.347656 C 4.042969 -0.347656 4.132812 -0.34375 4.230469 -0.34375 L 4.230469 -0.0742188 M 2.761719 -2.296875 C 2.523438 -2.226562 2.316406 -2.15625 2.136719 -2.089844 C 1.957031 -2.023438 1.789062 -1.9375 1.636719 -1.835938 C 1.496094 -1.742188 1.382812 -1.628906 1.304688 -1.496094 C 1.222656 -1.367188 1.179688 -1.210938 1.179688 -1.03125 C 1.179688 -0.796875 1.242188 -0.628906 1.363281 -0.515625 C 1.484375 -0.40625 1.640625 -0.351562 1.828125 -0.351562 C 2.027344 -0.351562 2.203125 -0.402344 2.355469 -0.5 C 2.503906 -0.59375 2.632812 -0.710938 2.738281 -0.84375 Z "/>
</g>
<g id="glyph-0-13">
<path d="M 4.347656 -2.113281 C 4.347656 -1.824219 4.300781 -1.535156 4.207031 -1.253906 C 4.117188 -0.972656 3.984375 -0.734375 3.8125 -0.539062 C 3.621094 -0.3125 3.394531 -0.148438 3.140625 -0.0390625 C 2.882812 0.0703125 2.597656 0.125 2.28125 0.125 C 2.015625 0.125 1.765625 0.078125 1.527344 -0.0234375 C 1.289062 -0.121094 1.078125 -0.269531 0.890625 -0.457031 C 0.710938 -0.644531 0.5625 -0.875 0.457031 -1.144531 C 0.347656 -1.417969 0.292969 -1.71875 0.292969 -2.054688 C 0.292969 -2.703125 0.484375 -3.234375 0.859375 -3.644531 C 1.238281 -4.058594 1.730469 -4.261719 2.34375 -4.261719 C 2.925781 -4.261719 3.402344 -4.066406 3.78125 -3.675781 C 4.160156 -3.285156 4.347656 -2.765625 4.347656 -2.113281 M 3.476562 -2.105469 C 3.476562 -2.316406 3.457031 -2.539062 3.414062 -2.773438 C 3.371094 -3.007812 3.308594 -3.207031 3.222656 -3.367188 C 3.132812 -3.542969 3.015625 -3.679688 2.871094 -3.785156 C 2.722656 -3.890625 2.546875 -3.945312 2.335938 -3.945312 C 2.121094 -3.945312 1.933594 -3.890625 1.78125 -3.785156 C 1.628906 -3.675781 1.503906 -3.53125 1.410156 -3.347656 C 1.320312 -3.175781 1.257812 -2.980469 1.21875 -2.761719 C 1.183594 -2.542969 1.164062 -2.332031 1.164062 -2.128906 C 1.164062 -1.859375 1.1875 -1.609375 1.230469 -1.382812 C 1.273438 -1.152344 1.34375 -0.949219 1.4375 -0.769531 C 1.535156 -0.589844 1.652344 -0.449219 1.796875 -0.347656 C 1.941406 -0.246094 2.121094 -0.195312 2.335938 -0.195312 C 2.6875 -0.195312 2.964844 -0.363281 3.167969 -0.703125 C 3.375 -1.042969 3.476562 -1.507812 3.476562 -2.105469 Z "/>
</g>
<g id="glyph-0-14">
<path d="M 6.535156 -5.667969 C 6.457031 -5.664062 6.335938 -5.640625 6.171875 -5.601562 C 6.007812 -5.558594 5.894531 -5.515625 5.824219 -5.46875 C 5.722656 -5.398438 5.652344 -5.265625 5.621094 -5.066406 C 5.585938 -4.867188 5.566406 -4.613281 5.566406 -4.308594 L 5.566406 0.0585938 L 5.199219 0.0585938 L 1.585938 -4.824219 L 1.585938 -1.746094 C 1.585938 -1.398438 1.605469 -1.136719 1.648438 -0.949219 C 1.695312 -0.765625 1.761719 -0.632812 1.851562 -0.554688 C 1.914062 -0.492188 2.046875 -0.4375 2.25 -0.382812 C 2.453125 -0.328125 2.585938 -0.300781 2.648438 -0.296875 L 2.648438 0 L 0.203125 0 L 0.203125 -0.296875 C 0.277344 -0.304688 0.40625 -0.332031 0.585938 -0.378906 C 0.765625 -0.429688 0.875 -0.472656 0.921875 -0.511719 C 1.019531 -0.589844 1.085938 -0.710938 1.121094 -0.871094 C 1.160156 -1.035156 1.175781 -1.308594 1.175781 -1.699219 L 1.175781 -4.636719 C 1.175781 -4.765625 1.15625 -4.894531 1.109375 -5.023438 C 1.066406 -5.152344 1.003906 -5.253906 0.929688 -5.324219 C 0.828125 -5.414062 0.691406 -5.496094 0.519531 -5.558594 C 0.347656 -5.625 0.207031 -5.660156 0.101562 -5.667969 L 0.101562 -5.964844 L 1.804688 -5.964844 L 5.160156 -1.417969 L 5.160156 -4.253906 C 5.160156 -4.601562 5.136719 -4.871094 5.089844 -5.054688 C 5.046875 -5.242188 4.980469 -5.367188 4.898438 -5.429688 C 4.820312 -5.480469 4.691406 -5.53125 4.511719 -5.582031 C 4.335938 -5.632812 4.199219 -5.660156 4.109375 -5.667969 L 4.109375 -5.964844 L 6.535156 -5.964844 Z "/>
</g>
<g id="glyph-0-15">
<path d="M 2.863281 -1.949219 L 0.355469 -1.949219 L 0.355469 -2.613281 L 2.863281 -2.613281 Z "/>
</g>
<g id="glyph-0-16">
<path d="M 3.242188 -5.589844 C 3.394531 -5.429688 3.511719 -5.246094 3.585938 -5.042969 C 3.660156 -4.839844 3.695312 -4.617188 3.695312 -4.378906 C 3.695312 -3.859375 3.53125 -3.4375 3.199219 -3.109375 C 2.867188 -2.78125 2.414062 -2.582031 1.835938 -2.515625 L 1.835938 -1.585938 L 1.449219 -1.585938 L 1.449219 -3.179688 C 1.628906 -3.191406 1.800781 -3.222656 1.976562 -3.265625 C 2.148438 -3.308594 2.304688 -3.378906 2.441406 -3.476562 C 2.585938 -3.582031 2.695312 -3.707031 2.777344 -3.855469 C 2.855469 -4 2.898438 -4.207031 2.898438 -4.472656 C 2.898438 -4.890625 2.808594 -5.214844 2.628906 -5.441406 C 2.453125 -5.664062 2.191406 -5.777344 1.851562 -5.777344 C 1.722656 -5.777344 1.609375 -5.757812 1.511719 -5.71875 C 1.414062 -5.683594 1.34375 -5.648438 1.300781 -5.613281 C 1.3125 -5.546875 1.332031 -5.449219 1.355469 -5.324219 C 1.378906 -5.195312 1.390625 -5.101562 1.390625 -5.03125 C 1.390625 -4.929688 1.347656 -4.835938 1.257812 -4.75 C 1.167969 -4.664062 1.035156 -4.621094 0.867188 -4.621094 C 0.714844 -4.621094 0.605469 -4.671875 0.542969 -4.777344 C 0.476562 -4.878906 0.445312 -5 0.445312 -5.136719 C 0.445312 -5.25 0.476562 -5.359375 0.539062 -5.46875 C 0.601562 -5.574219 0.695312 -5.679688 0.828125 -5.78125 C 0.941406 -5.871094 1.09375 -5.949219 1.285156 -6.011719 C 1.476562 -6.078125 1.675781 -6.109375 1.882812 -6.109375 C 2.179688 -6.109375 2.445312 -6.0625 2.675781 -5.96875 C 2.902344 -5.875 3.09375 -5.75 3.242188 -5.589844 M 2.234375 -0.484375 C 2.234375 -0.328125 2.175781 -0.191406 2.0625 -0.0820312 C 1.949219 0.0273438 1.8125 0.0859375 1.65625 0.0859375 C 1.5 0.0859375 1.363281 0.0273438 1.25 -0.0820312 C 1.136719 -0.191406 1.082031 -0.328125 1.082031 -0.484375 C 1.082031 -0.640625 1.136719 -0.777344 1.25 -0.890625 C 1.363281 -1.003906 1.5 -1.058594 1.65625 -1.058594 C 1.8125 -1.058594 1.949219 -1.003906 2.0625 -0.890625 C 2.175781 -0.777344 2.234375 -0.640625 2.234375 -0.484375 Z "/>
</g>
</g>
</defs>
<g fill="rgb(30.980392%, 61.960784%, 100%)" fill-opacity="1">
<use xlink:href="#glyph-0-0" x="30" y="27.895508"/>
<use xlink:href="#glyph-0-1" x="33" y="27.895508"/>
<use xlink:href="#glyph-0-2" x="38" y="27.895508"/>
<use xlink:href="#glyph-0-3" x="41" y="27.895508"/>
<use xlink:href="#glyph-0-4" x="45" y="27.895508"/>
<use xlink:href="#glyph-0-5" x="49" y="27.895508"/>
<use xlink:href="#glyph-0-6" x="53" y="27.895508"/>
<use xlink:href="#glyph-0-3" x="56" y="27.895508"/>
<use xlink:href="#glyph-0-7" x="60" y="27.895508"/>
<use xlink:href="#glyph-0-8" x="66" y="27.895508"/>
<use xlink:href="#glyph-0-9" x="68" y="27.895508"/>
<use xlink:href="#glyph-0-10" x="74" y="27.895508"/>
<use xlink:href="#glyph-0-8" x="77" y="27.895508"/>
<use xlink:href="#glyph-0-11" x="79" y="27.895508"/>
<use xlink:href="#glyph-0-6" x="84" y="27.895508"/>
<use xlink:href="#glyph-0-1" x="87" y="27.895508"/>
<use xlink:href="#glyph-0-3" x="92" y="27.895508"/>
<use xlink:href="#glyph-0-12" x="96" y="27.895508"/>
<use xlink:href="#glyph-0-4" x="100" y="27.895508"/>
<use xlink:href="#glyph-0-8" x="104" y="27.895508"/>
<use xlink:href="#glyph-0-13" x="106" y="27.895508"/>
<use xlink:href="#glyph-0-4" x="111" y="27.895508"/>
<use xlink:href="#glyph-0-8" x="115" y="27.895508"/>
<use xlink:href="#glyph-0-14" x="117" y="27.895508"/>
<use xlink:href="#glyph-0-13" x="124" y="27.895508"/>
<use xlink:href="#glyph-0-1" x="129" y="27.895508"/>
<use xlink:href="#glyph-0-15" x="134" y="27.895508"/>
<use xlink:href="#glyph-0-11" x="137" y="27.895508"/>
<use xlink:href="#glyph-0-6" x="142" y="27.895508"/>
<use xlink:href="#glyph-0-1" x="145" y="27.895508"/>
<use xlink:href="#glyph-0-3" x="150" y="27.895508"/>
<use xlink:href="#glyph-0-12" x="154" y="27.895508"/>
<use xlink:href="#glyph-0-4" x="158" y="27.895508"/>
<use xlink:href="#glyph-0-16" x="162" y="27.895508"/>
</g>
</svg>
