<?xml version="1.0" encoding="UTF-8"?>
<svg xmlns="http://www.w3.org/2000/svg" xmlns:xlink="http://www.w3.org/1999/xlink" width="854" height="480" viewBox="0 0 854 480">
<defs>
<g>
<g id="glyph-0-0">
<path d="M 6.75 -6.785156 C 7.089844 -6.433594 7.355469 -6.003906 7.546875 -5.503906 C 7.738281 -5.003906 7.832031 -4.449219 7.832031 -3.839844 C 7.832031 -3.230469 7.734375 -2.675781 7.539062 -2.175781 C 7.34375 -1.675781 7.074219 -1.25 6.726562 -0.902344 C 6.390625 -0.554688 6 -0.285156 5.554688 -0.0976562 C 5.109375 0.0898438 4.636719 0.183594 4.132812 0.183594 C 3.597656 0.183594 3.105469 0.0859375 2.648438 -0.117188 C 2.195312 -0.316406 1.804688 -0.597656 1.480469 -0.953125 C 1.15625 -1.304688 0.898438 -1.730469 0.714844 -2.234375 C 0.527344 -2.734375 0.433594 -3.269531 0.433594 -3.839844 C 0.433594 -4.464844 0.53125 -5.023438 0.726562 -5.515625 C 0.921875 -6.003906 1.191406 -6.429688 1.535156 -6.785156 C 1.875 -7.140625 2.269531 -7.414062 2.722656 -7.601562 C 3.171875 -7.789062 3.640625 -7.882812 4.132812 -7.882812 C 4.644531 -7.882812 5.125 -7.785156 5.578125 -7.59375 C 6.027344 -7.402344 6.417969 -7.132812 6.75 -6.785156 M 5.941406 -1.328125 C 6.144531 -1.660156 6.289062 -2.03125 6.382812 -2.445312 C 6.476562 -2.863281 6.519531 -3.328125 6.519531 -3.839844 C 6.519531 -4.367188 6.46875 -4.855469 6.367188 -5.296875 C 6.261719 -5.734375 6.113281 -6.113281 5.914062 -6.421875 C 5.714844 -6.730469 5.464844 -6.96875 5.164062 -7.140625 C 4.863281 -7.3125 4.519531 -7.398438 4.132812 -7.398438 C 3.699219 -7.398438 3.332031 -7.300781 3.027344 -7.101562 C 2.722656 -6.902344 2.476562 -6.636719 2.285156 -6.304688 C 2.101562 -5.984375 1.96875 -5.613281 1.878906 -5.1875 C 1.792969 -4.757812 1.746094 -4.3125 1.746094 -3.839844 C 1.746094 -3.320312 1.792969 -2.851562 1.886719 -2.429688 C 1.980469 -2.011719 2.128906 -1.636719 2.332031 -1.3125 C 2.527344 -0.996094 2.773438 -0.746094 3.070312 -0.566406 C 3.367188 -0.386719 3.722656 -0.296875 4.132812 -0.296875 C 4.519531 -0.296875 4.871094 -0.390625 5.179688 -0.570312 C 5.492188 -0.75 5.746094 -1.003906 5.941406 -1.328125 Z "/>
</g>
<g id="glyph-0-1">
<path d="M 5.675781 -5.019531 C 5.511719 -4.988281 5.355469 -4.929688 5.210938 -4.84375 C 5.0625 -4.753906 4.9375 -4.597656 4.832031 -4.371094 C 4.621094 -3.886719 4.398438 -3.382812 4.171875 -2.855469 C 3.945312 -2.332031 3.707031 -1.777344 3.460938 -1.199219 C 3.390625 -1.03125 3.3125 -0.835938 3.230469 -0.609375 C 3.148438 -0.378906 3.074219 -0.160156 3.003906 0.046875 L 2.582031 0.046875 C 2.238281 -0.800781 1.921875 -1.574219 1.632812 -2.277344 C 1.34375 -2.976562 1.042969 -3.691406 0.730469 -4.425781 C 0.660156 -4.59375 0.542969 -4.722656 0.382812 -4.816406 C 0.222656 -4.90625 0.0585938 -4.964844 -0.101562 -4.992188 L -0.101562 -5.347656 L 2.371094 -5.347656 L 2.371094 -4.96875 C 2.265625 -4.964844 2.128906 -4.941406 1.964844 -4.902344 C 1.804688 -4.859375 1.722656 -4.804688 1.722656 -4.730469 C 1.722656 -4.71875 1.730469 -4.691406 1.75 -4.648438 C 1.765625 -4.601562 1.785156 -4.550781 1.804688 -4.492188 C 1.949219 -4.125 2.160156 -3.609375 2.429688 -2.949219 C 2.699219 -2.285156 2.921875 -1.753906 3.089844 -1.347656 C 3.21875 -1.660156 3.382812 -2.046875 3.582031 -2.507812 C 3.777344 -2.972656 3.992188 -3.488281 4.21875 -4.058594 C 4.253906 -4.15625 4.289062 -4.246094 4.320312 -4.332031 C 4.355469 -4.417969 4.371094 -4.503906 4.371094 -4.589844 C 4.371094 -4.652344 4.339844 -4.707031 4.28125 -4.753906 C 4.222656 -4.804688 4.148438 -4.847656 4.066406 -4.882812 C 3.984375 -4.917969 3.902344 -4.945312 3.824219 -4.964844 C 3.742188 -4.980469 3.679688 -4.996094 3.628906 -5.003906 L 3.628906 -5.347656 L 5.675781 -5.347656 Z "/>
</g>
<g id="glyph-0-2">
<path d="M 5.144531 -1.257812 C 4.917969 -0.832031 4.617188 -0.492188 4.242188 -0.238281 C 3.867188 0.015625 3.433594 0.140625 2.945312 0.140625 C 2.515625 0.140625 2.136719 0.0664062 1.816406 -0.0859375 C 1.492188 -0.238281 1.222656 -0.445312 1.015625 -0.707031 C 0.804688 -0.964844 0.648438 -1.269531 0.546875 -1.617188 C 0.441406 -1.964844 0.390625 -2.332031 0.390625 -2.71875 C 0.390625 -3.066406 0.445312 -3.40625 0.554688 -3.742188 C 0.667969 -4.074219 0.828125 -4.375 1.042969 -4.644531 C 1.246094 -4.902344 1.503906 -5.109375 1.808594 -5.265625 C 2.113281 -5.421875 2.457031 -5.5 2.835938 -5.5 C 3.226562 -5.5 3.5625 -5.441406 3.839844 -5.316406 C 4.121094 -5.195312 4.34375 -5.027344 4.519531 -4.8125 C 4.683594 -4.609375 4.808594 -4.371094 4.890625 -4.097656 C 4.972656 -3.820312 5.011719 -3.523438 5.011719 -3.199219 L 5.011719 -2.84375 L 1.46875 -2.84375 C 1.46875 -2.492188 1.503906 -2.171875 1.570312 -1.886719 C 1.636719 -1.597656 1.742188 -1.347656 1.886719 -1.128906 C 2.027344 -0.917969 2.214844 -0.753906 2.441406 -0.632812 C 2.667969 -0.511719 2.941406 -0.449219 3.253906 -0.449219 C 3.578125 -0.449219 3.855469 -0.527344 4.085938 -0.675781 C 4.320312 -0.828125 4.546875 -1.097656 4.761719 -1.492188 L 5.144531 -1.257812 M 3.945312 -3.296875 C 3.945312 -3.5 3.925781 -3.714844 3.890625 -3.949219 C 3.859375 -4.179688 3.804688 -4.371094 3.726562 -4.527344 C 3.644531 -4.691406 3.53125 -4.828125 3.386719 -4.933594 C 3.242188 -5.035156 3.054688 -5.089844 2.828125 -5.089844 C 2.445312 -5.089844 2.132812 -4.929688 1.878906 -4.617188 C 1.628906 -4.300781 1.492188 -3.859375 1.46875 -3.296875 Z "/>
</g>
<g id="glyph-0-3">
<path d="M 4.488281 -4.660156 C 4.488281 -4.476562 4.441406 -4.3125 4.351562 -4.167969 C 4.261719 -4.027344 4.121094 -3.953125 3.933594 -3.953125 C 3.730469 -3.953125 3.574219 -4.007812 3.46875 -4.113281 C 3.363281 -4.21875 3.308594 -4.332031 3.308594 -4.460938 C 3.308594 -4.539062 3.316406 -4.613281 3.328125 -4.675781 C 3.339844 -4.742188 3.351562 -4.808594 3.363281 -4.871094 C 3.195312 -4.871094 2.996094 -4.804688 2.765625 -4.664062 C 2.539062 -4.527344 2.34375 -4.332031 2.1875 -4.078125 L 2.1875 -0.964844 C 2.1875 -0.839844 2.210938 -0.734375 2.257812 -0.65625 C 2.308594 -0.578125 2.386719 -0.515625 2.488281 -0.476562 C 2.582031 -0.441406 2.695312 -0.414062 2.839844 -0.394531 C 2.984375 -0.378906 3.105469 -0.367188 3.210938 -0.359375 L 3.210938 0 L 0.390625 0 L 0.390625 -0.359375 C 0.472656 -0.367188 0.558594 -0.371094 0.648438 -0.378906 C 0.738281 -0.386719 0.8125 -0.402344 0.878906 -0.421875 C 0.980469 -0.457031 1.054688 -0.511719 1.105469 -0.59375 C 1.152344 -0.675781 1.175781 -0.78125 1.175781 -0.910156 L 1.175781 -4.210938 C 1.175781 -4.324219 1.152344 -4.433594 1.097656 -4.542969 C 1.046875 -4.648438 0.972656 -4.738281 0.878906 -4.800781 C 0.808594 -4.84375 0.730469 -4.875 0.632812 -4.894531 C 0.539062 -4.917969 0.4375 -4.929688 0.332031 -4.9375 L 0.332031 -5.296875 L 2.109375 -5.414062 L 2.1875 -5.339844 L 2.1875 -4.585938 L 2.214844 -4.585938 C 2.4375 -4.878906 2.6875 -5.101562 2.960938 -5.25 C 3.238281 -5.402344 3.488281 -5.480469 3.714844 -5.480469 C 3.945312 -5.480469 4.128906 -5.40625 4.273438 -5.257812 C 4.414062 -5.109375 4.488281 -4.910156 4.488281 -4.660156 Z "/>
</g>
<g id="glyph-0-4">
<path d="M 4.371094 -7.746094 C 4.371094 -7.585938 4.328125 -7.445312 4.242188 -7.335938 C 4.15625 -7.222656 4.023438 -7.167969 3.847656 -7.167969 C 3.734375 -7.167969 3.636719 -7.191406 3.550781 -7.238281 C 3.464844 -7.285156 3.386719 -7.347656 3.316406 -7.425781 C 3.242188 -7.507812 3.175781 -7.597656 3.113281 -7.699219 C 3.050781 -7.800781 3 -7.882812 2.957031 -7.941406 C 2.714844 -7.929688 2.527344 -7.761719 2.394531 -7.4375 C 2.261719 -7.109375 2.195312 -6.589844 2.195312 -5.875 L 2.195312 -5.328125 L 3.574219 -5.328125 L 3.574219 -4.808594 L 2.195312 -4.808594 L 2.195312 -0.964844 C 2.195312 -0.839844 2.222656 -0.734375 2.269531 -0.65625 C 2.320312 -0.578125 2.394531 -0.515625 2.5 -0.476562 C 2.585938 -0.445312 2.703125 -0.417969 2.847656 -0.398438 C 2.992188 -0.378906 3.117188 -0.367188 3.222656 -0.359375 L 3.222656 0 L 0.402344 0 L 0.402344 -0.359375 C 0.484375 -0.367188 0.570312 -0.371094 0.660156 -0.378906 C 0.746094 -0.386719 0.824219 -0.402344 0.890625 -0.421875 C 0.992188 -0.457031 1.066406 -0.511719 1.113281 -0.59375 C 1.164062 -0.675781 1.1875 -0.78125 1.1875 -0.910156 L 1.1875 -4.808594 L 0.128906 -4.808594 L 0.128906 -5.328125 L 1.1875 -5.328125 L 1.1875 -5.667969 C 1.1875 -6.480469 1.398438 -7.140625 1.820312 -7.644531 C 2.242188 -8.144531 2.769531 -8.398438 3.402344 -8.398438 C 3.722656 -8.398438 3.964844 -8.335938 4.128906 -8.207031 C 4.292969 -8.082031 4.371094 -7.929688 4.371094 -7.746094 Z "/>
</g>
<g id="glyph-0-5">
<path d="M 2.984375 0 L 0.402344 0 L 0.402344 -0.359375 C 0.484375 -0.367188 0.570312 -0.371094 0.660156 -0.378906 C 0.746094 -0.386719 0.824219 -0.402344 0.890625 -0.421875 C 0.992188 -0.457031 1.066406 -0.511719 1.113281 -0.59375 C 1.164062 -0.675781 1.1875 -0.78125 1.1875 -0.910156 L 1.1875 -4.210938 C 1.1875 -4.328125 1.160156 -4.433594 1.109375 -4.527344 C 1.058594 -4.625 0.984375 -4.703125 0.890625 -4.769531 C 0.820312 -4.8125 0.722656 -4.847656 0.589844 -4.878906 C 0.460938 -4.910156 0.339844 -4.929688 0.234375 -4.9375 L 0.234375 -5.296875 L 2.121094 -5.414062 L 2.195312 -5.339844 L 2.195312 -0.976562 C 2.195312 -0.851562 2.222656 -0.746094 2.269531 -0.660156 C 2.320312 -0.578125 2.394531 -0.515625 2.5 -0.476562 C 2.578125 -0.445312 2.65625 -0.417969 2.730469 -0.398438 C 2.804688 -0.378906 2.890625 -0.367188 2.984375 -0.359375 L 2.984375 0 M 2.304688 -7.523438 C 2.304688 -7.320312 2.238281 -7.136719 2.101562 -6.984375 C 1.964844 -6.832031 1.800781 -6.753906 1.601562 -6.753906 C 1.414062 -6.753906 1.257812 -6.828125 1.121094 -6.972656 C 0.984375 -7.121094 0.917969 -7.289062 0.917969 -7.476562 C 0.917969 -7.675781 0.984375 -7.847656 1.121094 -7.996094 C 1.257812 -8.144531 1.414062 -8.21875 1.601562 -8.21875 C 1.804688 -8.21875 1.976562 -8.148438 2.109375 -8.011719 C 2.238281 -7.871094 2.304688 -7.710938 2.304688 -7.523438 Z "/>
</g>
<g id="glyph-0-6">
<path d="M 3.695312 -0.234375 C 3.460938 -0.136719 3.238281 -0.0546875 3.027344 0.0117188 C 2.816406 0.0820312 2.5625 0.113281 2.257812 0.113281 C 1.808594 0.113281 1.492188 0 1.308594 -0.226562 C 1.128906 -0.453125 1.035156 -0.769531 1.035156 -1.183594 L 1.035156 -4.808594 L 0.0703125 -4.808594 L 0.0703125 -5.328125 L 1.058594 -5.328125 L 1.058594 -6.992188 L 2.046875 -6.992188 L 2.046875 -5.328125 L 3.582031 -5.328125 L 3.582031 -4.808594 L 2.054688 -4.808594 L 2.054688 -1.816406 C 2.054688 -1.59375 2.0625 -1.40625 2.082031 -1.257812 C 2.097656 -1.105469 2.136719 -0.976562 2.195312 -0.863281 C 2.253906 -0.757812 2.34375 -0.679688 2.457031 -0.625 C 2.574219 -0.570312 2.730469 -0.542969 2.925781 -0.542969 C 3.015625 -0.542969 3.148438 -0.550781 3.324219 -0.566406 C 3.5 -0.582031 3.621094 -0.605469 3.695312 -0.628906 Z "/>
</g>
<g id="glyph-0-7">
<path d="M 6.296875 0 L 3.683594 0 L 3.683594 -0.359375 C 3.765625 -0.367188 3.859375 -0.371094 3.957031 -0.378906 C 4.058594 -0.386719 4.140625 -0.402344 4.203125 -0.421875 C 4.304688 -0.457031 4.378906 -0.511719 4.429688 -0.59375 C 4.476562 -0.675781 4.503906 -0.78125 4.503906 -0.910156 L 4.503906 -3.660156 C 4.503906 -4.042969 4.414062 -4.335938 4.234375 -4.539062 C 4.054688 -4.746094 3.835938 -4.851562 3.578125 -4.851562 C 3.386719 -4.851562 3.210938 -4.820312 3.050781 -4.761719 C 2.890625 -4.699219 2.75 -4.628906 2.625 -4.539062 C 2.507812 -4.457031 2.410156 -4.367188 2.339844 -4.273438 C 2.269531 -4.175781 2.21875 -4.097656 2.1875 -4.042969 L 2.1875 -0.964844 C 2.1875 -0.84375 2.210938 -0.742188 2.261719 -0.660156 C 2.3125 -0.582031 2.390625 -0.519531 2.488281 -0.476562 C 2.566406 -0.441406 2.648438 -0.414062 2.738281 -0.394531 C 2.824219 -0.378906 2.917969 -0.367188 3.011719 -0.359375 L 3.011719 0 L 0.390625 0 L 0.390625 -0.359375 C 0.472656 -0.367188 0.558594 -0.371094 0.648438 -0.378906 C 0.738281 -0.386719 0.8125 -0.402344 0.878906 -0.421875 C 0.980469 -0.457031 1.054688 -0.511719 1.105469 -0.59375 C 1.152344 -0.675781 1.175781 -0.78125 1.175781 -0.910156 L 1.175781 -4.210938 C 1.175781 -4.332031 1.152344 -4.445312 1.097656 -4.550781 C 1.046875 -4.652344 0.972656 -4.738281 0.878906 -4.800781 C 0.808594 -4.84375 0.730469 -4.875 0.632812 -4.894531 C 0.539062 -4.917969 0.4375 -4.929688 0.332031 -4.9375 L 0.332031 -5.296875 L 2.109375 -5.414062 L 2.1875 -5.339844 L 2.1875 -4.585938 L 2.214844 -4.585938 C 2.300781 -4.671875 2.410156 -4.773438 2.539062 -4.894531 C 2.667969 -5.015625 2.792969 -5.117188 2.90625 -5.191406 C 3.042969 -5.277344 3.199219 -5.351562 3.386719 -5.410156 C 3.570312 -5.464844 3.777344 -5.496094 4.007812 -5.496094 C 4.523438 -5.496094 4.902344 -5.335938 5.152344 -5.015625 C 5.398438 -4.695312 5.523438 -4.269531 5.523438 -3.738281 L 5.523438 -0.953125 C 5.523438 -0.828125 5.542969 -0.726562 5.585938 -0.648438 C 5.632812 -0.570312 5.707031 -0.511719 5.808594 -0.464844 C 5.898438 -0.429688 5.972656 -0.40625 6.035156 -0.390625 C 6.097656 -0.375 6.1875 -0.367188 6.296875 -0.359375 Z "/>
</g>
<g id="glyph-0-8">
<path d="M 4.976562 -0.554688 C 5.121094 -0.414062 5.234375 -0.261719 5.316406 -0.0859375 C 5.398438 0.0859375 5.441406 0.300781 5.441406 0.558594 C 5.441406 0.816406 5.386719 1.058594 5.273438 1.28125 C 5.160156 1.507812 4.992188 1.707031 4.761719 1.871094 C 4.519531 2.042969 4.230469 2.171875 3.894531 2.269531 C 3.558594 2.363281 3.144531 2.410156 2.648438 2.410156 C 1.835938 2.410156 1.230469 2.289062 0.828125 2.054688 C 0.429688 1.816406 0.226562 1.46875 0.226562 1.015625 C 0.226562 0.644531 0.371094 0.355469 0.660156 0.140625 C 0.953125 -0.0742188 1.320312 -0.1875 1.769531 -0.207031 L 1.769531 -0.28125 C 1.660156 -0.316406 1.546875 -0.355469 1.433594 -0.402344 C 1.316406 -0.453125 1.21875 -0.511719 1.132812 -0.574219 C 1.039062 -0.652344 0.964844 -0.742188 0.90625 -0.84375 C 0.847656 -0.945312 0.820312 -1.074219 0.820312 -1.226562 C 0.820312 -1.417969 0.886719 -1.59375 1.023438 -1.753906 C 1.160156 -1.914062 1.363281 -2.054688 1.636719 -2.171875 L 1.636719 -2.25 C 1.292969 -2.414062 1.023438 -2.625 0.828125 -2.878906 C 0.636719 -3.132812 0.542969 -3.429688 0.542969 -3.765625 C 0.542969 -4.269531 0.730469 -4.6875 1.109375 -5.011719 C 1.488281 -5.339844 1.972656 -5.5 2.5625 -5.5 C 2.722656 -5.5 2.886719 -5.484375 3.046875 -5.453125 C 3.207031 -5.417969 3.371094 -5.378906 3.539062 -5.328125 L 5.402344 -5.328125 L 5.402344 -4.808594 L 4.144531 -4.808594 L 4.144531 -4.773438 C 4.277344 -4.617188 4.378906 -4.445312 4.441406 -4.257812 C 4.507812 -4.070312 4.539062 -3.886719 4.539062 -3.707031 C 4.539062 -3.234375 4.351562 -2.835938 3.96875 -2.511719 C 3.585938 -2.1875 3.144531 -2.023438 2.636719 -2.023438 L 1.980469 -2.023438 C 1.898438 -1.996094 1.808594 -1.941406 1.71875 -1.867188 C 1.628906 -1.789062 1.585938 -1.6875 1.585938 -1.558594 C 1.585938 -1.421875 1.621094 -1.320312 1.699219 -1.25 C 1.773438 -1.179688 1.867188 -1.132812 1.976562 -1.105469 C 2.078125 -1.078125 2.203125 -1.058594 2.339844 -1.050781 C 2.480469 -1.046875 2.625 -1.039062 2.773438 -1.035156 C 2.929688 -1.03125 3.148438 -1.023438 3.425781 -1.003906 C 3.703125 -0.984375 3.898438 -0.976562 4.015625 -0.972656 C 4.179688 -0.964844 4.347656 -0.925781 4.515625 -0.851562 C 4.683594 -0.78125 4.835938 -0.679688 4.976562 -0.554688 M 3.511719 -3.726562 C 3.511719 -4.148438 3.425781 -4.488281 3.253906 -4.738281 C 3.082031 -4.988281 2.839844 -5.117188 2.527344 -5.117188 C 2.359375 -5.117188 2.210938 -5.082031 2.089844 -5.011719 C 1.96875 -4.941406 1.871094 -4.839844 1.796875 -4.710938 C 1.722656 -4.589844 1.671875 -4.445312 1.640625 -4.277344 C 1.609375 -4.109375 1.59375 -3.9375 1.59375 -3.757812 C 1.59375 -3.359375 1.683594 -3.03125 1.859375 -2.777344 C 2.035156 -2.523438 2.261719 -2.398438 2.539062 -2.398438 C 2.851562 -2.398438 3.089844 -2.523438 3.257812 -2.773438 C 3.425781 -3.027344 3.511719 -3.34375 3.511719 -3.726562 M 4.550781 0.757812 C 4.550781 0.558594 4.503906 0.390625 4.410156 0.261719 C 4.316406 0.128906 4.171875 0.0429688 3.980469 -0.00390625 C 3.878906 -0.0195312 3.671875 -0.0351562 3.359375 -0.0546875 C 3.042969 -0.0742188 2.679688 -0.0820312 2.261719 -0.0820312 C 1.871094 -0.00390625 1.59375 0.121094 1.429688 0.300781 C 1.265625 0.480469 1.183594 0.710938 1.183594 0.992188 C 1.183594 1.121094 1.210938 1.242188 1.265625 1.355469 C 1.316406 1.472656 1.414062 1.578125 1.546875 1.675781 C 1.671875 1.769531 1.84375 1.847656 2.054688 1.90625 C 2.269531 1.964844 2.53125 1.996094 2.835938 1.996094 C 3.367188 1.996094 3.789062 1.894531 4.09375 1.691406 C 4.398438 1.484375 4.550781 1.175781 4.550781 0.757812 Z "/>
</g>
</g>
</defs>
<g fill="rgb(30.980392%, 61.960784%, 100%)" fill-opacity="1">
<use xlink:href="#glyph-0-0" x="30" y="30.188477"/>
<use xlink:href="#glyph-0-1" x="38" y="30.188477"/>
<use xlink:href="#glyph-0-2" x="44" y="30.188477"/>
<use xlink:href="#glyph-0-3" x="49" y="30.188477"/>
<use xlink:href="#glyph-0-4" x="54" y="30.188477"/>
<use xlink:href="#glyph-0-5" x="58" y="30.188477"/>
<use xlink:href="#glyph-0-6" x="61" y="30.188477"/>
<use xlink:href="#glyph-0-6" x="65" y="30.188477"/>
<use xlink:href="#glyph-0-5" x="69" y="30.188477"/>
<use xlink:href="#glyph-0-7" x="72" y="30.188477"/>
<use xlink:href="#glyph-0-8" x="79" y="30.188477"/>
</g>
</svg>
