<?xml version="1.0" encoding="UTF-8"?>
<svg xmlns="http://www.w3.org/2000/svg" xmlns:xlink="http://www.w3.org/1999/xlink" width="854" height="480" viewBox="0 0 854 480">
<defs>
<g>
<g id="glyph-0-0">
<path d="M 12.050781 0 L 7.460938 0 L 7.460938 -0.464844 C 7.59375 -0.476562 7.761719 -0.496094 7.957031 -0.523438 C 8.15625 -0.554688 8.289062 -0.582031 8.359375 -0.613281 C 8.507812 -0.675781 8.613281 -0.757812 8.675781 -0.859375 C 8.742188 -0.960938 8.773438 -1.09375 8.773438 -1.253906 L 8.773438 -7.578125 L 5.859375 -0.136719 L 5.109375 -0.136719 C 5.074219 -0.269531 4.984375 -0.527344 4.84375 -0.917969 C 4.703125 -1.308594 4.585938 -1.621094 4.5 -1.855469 L 2.355469 -7.675781 L 2.355469 -2.523438 C 2.355469 -2.03125 2.390625 -1.65625 2.457031 -1.398438 C 2.523438 -1.144531 2.628906 -0.953125 2.773438 -0.835938 C 2.875 -0.753906 3.050781 -0.671875 3.308594 -0.597656 C 3.566406 -0.519531 3.746094 -0.476562 3.847656 -0.464844 L 3.847656 0 L 0.207031 0 L 0.207031 -0.464844 C 0.308594 -0.476562 0.46875 -0.503906 0.695312 -0.546875 C 0.921875 -0.585938 1.105469 -0.660156 1.246094 -0.765625 C 1.40625 -0.875 1.515625 -1.0625 1.570312 -1.328125 C 1.625 -1.59375 1.652344 -1.96875 1.652344 -2.457031 L 1.652344 -6.65625 C 1.652344 -6.910156 1.621094 -7.121094 1.558594 -7.289062 C 1.492188 -7.460938 1.398438 -7.59375 1.269531 -7.691406 C 1.113281 -7.816406 0.949219 -7.894531 0.78125 -7.929688 C 0.613281 -7.96875 0.445312 -7.992188 0.273438 -8.003906 L 0.273438 -8.46875 L 4.175781 -8.46875 L 6.265625 -2.890625 L 8.023438 -7.417969 C 8.082031 -7.585938 8.140625 -7.785156 8.195312 -8.015625 C 8.253906 -8.246094 8.28125 -8.398438 8.285156 -8.46875 L 12.039062 -8.46875 L 12.039062 -8.003906 C 11.910156 -7.996094 11.777344 -7.980469 11.636719 -7.957031 C 11.5 -7.929688 11.367188 -7.898438 11.238281 -7.859375 C 11.082031 -7.808594 10.980469 -7.726562 10.929688 -7.617188 C 10.878906 -7.503906 10.855469 -7.378906 10.855469 -7.246094 L 10.855469 -1.246094 C 10.855469 -1.105469 10.878906 -0.984375 10.929688 -0.886719 C 10.980469 -0.789062 11.082031 -0.703125 11.238281 -0.632812 C 11.316406 -0.597656 11.449219 -0.5625 11.628906 -0.53125 C 11.808594 -0.5 11.949219 -0.476562 12.050781 -0.464844 Z "/>
</g>
<g id="glyph-0-1">
<path d="M 7.167969 -0.125 C 6.992188 -0.0507812 6.785156 0.0195312 6.546875 0.0820312 C 6.308594 0.148438 6.058594 0.179688 5.792969 0.179688 C 5.304688 0.179688 4.945312 0.105469 4.714844 -0.0390625 C 4.484375 -0.183594 4.328125 -0.390625 4.242188 -0.664062 L 4.207031 -0.664062 C 4.070312 -0.527344 3.941406 -0.410156 3.816406 -0.316406 C 3.691406 -0.222656 3.554688 -0.140625 3.414062 -0.0703125 C 3.226562 0.015625 3.042969 0.0820312 2.871094 0.125 C 2.699219 0.167969 2.457031 0.191406 2.144531 0.191406 C 1.683594 0.191406 1.289062 0.0546875 0.960938 -0.21875 C 0.636719 -0.492188 0.472656 -0.851562 0.472656 -1.304688 C 0.472656 -1.5625 0.507812 -1.78125 0.578125 -1.964844 C 0.652344 -2.144531 0.753906 -2.304688 0.882812 -2.445312 C 1.003906 -2.574219 1.140625 -2.679688 1.300781 -2.761719 C 1.457031 -2.84375 1.628906 -2.921875 1.816406 -2.996094 C 2.175781 -3.125 2.605469 -3.261719 3.109375 -3.402344 C 3.609375 -3.546875 3.976562 -3.671875 4.207031 -3.785156 L 4.207031 -4.355469 C 4.207031 -4.457031 4.199219 -4.585938 4.183594 -4.75 C 4.167969 -4.914062 4.132812 -5.050781 4.082031 -5.164062 C 4.027344 -5.289062 3.9375 -5.398438 3.820312 -5.484375 C 3.699219 -5.570312 3.542969 -5.617188 3.347656 -5.617188 C 3.171875 -5.617188 3.027344 -5.589844 2.910156 -5.542969 C 2.792969 -5.492188 2.695312 -5.441406 2.625 -5.390625 C 2.636719 -5.308594 2.671875 -5.1875 2.726562 -5.023438 C 2.78125 -4.863281 2.8125 -4.703125 2.8125 -4.554688 C 2.8125 -4.484375 2.792969 -4.402344 2.757812 -4.300781 C 2.722656 -4.199219 2.667969 -4.117188 2.601562 -4.058594 C 2.507812 -3.980469 2.40625 -3.917969 2.292969 -3.875 C 2.179688 -3.828125 2.003906 -3.808594 1.769531 -3.808594 C 1.433594 -3.808594 1.179688 -3.886719 1.007812 -4.050781 C 0.835938 -4.210938 0.753906 -4.421875 0.753906 -4.679688 C 0.753906 -4.902344 0.839844 -5.101562 1.015625 -5.277344 C 1.195312 -5.457031 1.410156 -5.601562 1.664062 -5.71875 C 1.914062 -5.835938 2.203125 -5.929688 2.53125 -5.996094 C 2.855469 -6.0625 3.160156 -6.09375 3.4375 -6.09375 C 3.824219 -6.09375 4.175781 -6.070312 4.5 -6.023438 C 4.820312 -5.980469 5.113281 -5.882812 5.371094 -5.742188 C 5.617188 -5.601562 5.8125 -5.398438 5.960938 -5.136719 C 6.105469 -4.871094 6.175781 -4.527344 6.175781 -4.101562 C 6.175781 -3.652344 6.167969 -3.117188 6.148438 -2.5 C 6.132812 -1.882812 6.125 -1.476562 6.125 -1.28125 C 6.125 -1.105469 6.148438 -0.960938 6.203125 -0.859375 C 6.257812 -0.757812 6.339844 -0.679688 6.453125 -0.625 C 6.519531 -0.59375 6.625 -0.574219 6.769531 -0.570312 C 6.917969 -0.5625 7.046875 -0.5625 7.167969 -0.5625 L 7.167969 -0.125 M 4.207031 -3.234375 C 3.984375 -3.160156 3.761719 -3.070312 3.542969 -2.972656 C 3.324219 -2.875 3.144531 -2.773438 3.003906 -2.667969 C 2.855469 -2.554688 2.738281 -2.414062 2.65625 -2.238281 C 2.574219 -2.066406 2.53125 -1.859375 2.53125 -1.625 C 2.53125 -1.3125 2.601562 -1.089844 2.742188 -0.949219 C 2.886719 -0.808594 3.058594 -0.738281 3.265625 -0.738281 C 3.488281 -0.738281 3.667969 -0.785156 3.808594 -0.875 C 3.949219 -0.964844 4.074219 -1.074219 4.183594 -1.207031 Z "/>
</g>
<g id="glyph-0-2">
<path d="M 4.785156 -0.273438 C 4.53125 -0.164062 4.257812 -0.0625 3.96875 0.0273438 C 3.679688 0.117188 3.324219 0.160156 2.90625 0.160156 C 2.285156 0.160156 1.824219 0.0117188 1.523438 -0.292969 C 1.222656 -0.59375 1.074219 -1.023438 1.074219 -1.585938 L 1.074219 -5.246094 L 0 -5.246094 L 0 -5.894531 L 1.097656 -5.894531 L 1.097656 -7.703125 L 3.03125 -7.703125 L 3.03125 -5.894531 L 4.707031 -5.894531 L 4.707031 -5.246094 L 3.042969 -5.246094 L 3.042969 -1.980469 C 3.042969 -1.515625 3.109375 -1.183594 3.238281 -0.992188 C 3.367188 -0.796875 3.601562 -0.699219 3.9375 -0.699219 C 4.042969 -0.699219 4.195312 -0.707031 4.386719 -0.722656 C 4.578125 -0.738281 4.710938 -0.757812 4.785156 -0.777344 Z "/>
</g>
<g id="glyph-0-3">
<path d="M 6.289062 -4.828125 C 6.289062 -4.527344 6.195312 -4.261719 6.011719 -4.03125 C 5.824219 -3.800781 5.578125 -3.6875 5.269531 -3.6875 C 4.980469 -3.6875 4.734375 -3.761719 4.53125 -3.90625 C 4.332031 -4.054688 4.230469 -4.269531 4.230469 -4.554688 C 4.230469 -4.695312 4.242188 -4.800781 4.261719 -4.878906 C 4.28125 -4.957031 4.300781 -5.03125 4.316406 -5.097656 C 4.132812 -5.089844 3.9375 -5.027344 3.734375 -4.90625 C 3.53125 -4.789062 3.355469 -4.632812 3.199219 -4.433594 L 3.199219 -1.15625 C 3.199219 -1.019531 3.222656 -0.902344 3.265625 -0.8125 C 3.308594 -0.71875 3.382812 -0.648438 3.484375 -0.597656 C 3.574219 -0.554688 3.714844 -0.515625 3.910156 -0.488281 C 4.109375 -0.457031 4.25 -0.441406 4.339844 -0.4375 L 4.339844 0 L 0.347656 0 L 0.347656 -0.4375 C 0.445312 -0.445312 0.546875 -0.453125 0.648438 -0.46875 C 0.75 -0.480469 0.835938 -0.5 0.90625 -0.523438 C 1.035156 -0.570312 1.121094 -0.636719 1.167969 -0.726562 C 1.21875 -0.820312 1.242188 -0.9375 1.242188 -1.085938 L 1.242188 -4.558594 C 1.242188 -4.703125 1.207031 -4.832031 1.140625 -4.945312 C 1.074219 -5.058594 0.992188 -5.148438 0.894531 -5.214844 C 0.824219 -5.265625 0.734375 -5.304688 0.625 -5.335938 C 0.515625 -5.367188 0.394531 -5.390625 0.261719 -5.402344 L 0.261719 -5.835938 L 3.109375 -5.992188 L 3.199219 -5.902344 L 3.199219 -5.035156 L 3.222656 -5.035156 C 3.496094 -5.355469 3.789062 -5.605469 4.097656 -5.785156 C 4.40625 -5.96875 4.726562 -6.058594 5.0625 -6.058594 C 5.429688 -6.058594 5.726562 -5.941406 5.953125 -5.714844 C 6.179688 -5.484375 6.289062 -5.191406 6.289062 -4.828125 Z "/>
</g>
<g id="glyph-0-4">
<path d="M 4.117188 0 L 0.347656 0 L 0.347656 -0.4375 C 0.449219 -0.445312 0.550781 -0.453125 0.652344 -0.464844 C 0.75 -0.476562 0.835938 -0.496094 0.90625 -0.523438 C 1.035156 -0.574219 1.125 -0.640625 1.175781 -0.730469 C 1.226562 -0.820312 1.253906 -0.9375 1.253906 -1.085938 L 1.253906 -4.558594 C 1.253906 -4.699219 1.222656 -4.820312 1.15625 -4.925781 C 1.09375 -5.03125 1.015625 -5.117188 0.917969 -5.179688 C 0.847656 -5.226562 0.738281 -5.273438 0.59375 -5.316406 C 0.449219 -5.363281 0.316406 -5.390625 0.195312 -5.402344 L 0.195312 -5.835938 L 3.121094 -5.992188 L 3.210938 -5.902344 L 3.210938 -1.164062 C 3.210938 -1.023438 3.242188 -0.90625 3.300781 -0.808594 C 3.359375 -0.710938 3.445312 -0.636719 3.558594 -0.589844 C 3.636719 -0.554688 3.722656 -0.523438 3.820312 -0.496094 C 3.914062 -0.46875 4.015625 -0.449219 4.117188 -0.4375 L 4.117188 0 M 3.246094 -8.140625 C 3.246094 -7.839844 3.128906 -7.582031 2.898438 -7.367188 C 2.664062 -7.15625 2.390625 -7.046875 2.070312 -7.046875 C 1.75 -7.046875 1.472656 -7.15625 1.238281 -7.367188 C 1.003906 -7.582031 0.890625 -7.839844 0.890625 -8.140625 C 0.890625 -8.441406 1.003906 -8.703125 1.238281 -8.917969 C 1.472656 -9.132812 1.75 -9.238281 2.070312 -9.238281 C 2.394531 -9.238281 2.667969 -9.132812 2.902344 -8.917969 C 3.132812 -8.703125 3.246094 -8.441406 3.246094 -8.140625 Z "/>
</g>
<g id="glyph-0-5">
<path d="M 7.148438 0 L 3.417969 0 L 3.417969 -0.4375 C 3.617188 -0.449219 3.777344 -0.464844 3.910156 -0.488281 C 4.042969 -0.507812 4.109375 -0.554688 4.109375 -0.621094 C 4.109375 -0.652344 4.089844 -0.703125 4.058594 -0.769531 C 4.023438 -0.835938 3.980469 -0.914062 3.929688 -0.996094 C 3.851562 -1.121094 3.722656 -1.316406 3.539062 -1.582031 C 3.351562 -1.851562 3.175781 -2.097656 3.015625 -2.324219 C 2.78125 -2.058594 2.589844 -1.828125 2.433594 -1.636719 C 2.28125 -1.445312 2.117188 -1.238281 1.945312 -1.019531 C 1.886719 -0.949219 1.84375 -0.882812 1.820312 -0.824219 C 1.796875 -0.765625 1.785156 -0.726562 1.785156 -0.714844 C 1.785156 -0.625 1.847656 -0.554688 1.976562 -0.507812 C 2.105469 -0.460938 2.261719 -0.4375 2.441406 -0.4375 L 2.441406 0 L 0.0195312 0 L 0.0195312 -0.4375 C 0.339844 -0.503906 0.597656 -0.609375 0.792969 -0.757812 C 0.984375 -0.90625 1.117188 -1.019531 1.183594 -1.097656 C 1.472656 -1.410156 1.71875 -1.667969 1.921875 -1.875 C 2.121094 -2.082031 2.390625 -2.371094 2.730469 -2.742188 C 2.503906 -3.054688 2.230469 -3.4375 1.910156 -3.890625 C 1.585938 -4.339844 1.316406 -4.710938 1.105469 -5 C 0.996094 -5.144531 0.863281 -5.253906 0.707031 -5.332031 C 0.550781 -5.410156 0.347656 -5.460938 0.101562 -5.484375 L 0.101562 -5.921875 L 3.746094 -5.921875 L 3.746094 -5.484375 C 3.617188 -5.484375 3.488281 -5.476562 3.359375 -5.460938 C 3.234375 -5.445312 3.171875 -5.417969 3.171875 -5.378906 C 3.171875 -5.34375 3.179688 -5.304688 3.199219 -5.257812 C 3.21875 -5.210938 3.246094 -5.160156 3.277344 -5.109375 C 3.351562 -4.980469 3.472656 -4.792969 3.632812 -4.546875 C 3.796875 -4.300781 3.972656 -4.042969 4.160156 -3.773438 C 4.335938 -3.992188 4.488281 -4.171875 4.609375 -4.308594 C 4.730469 -4.449219 4.886719 -4.644531 5.078125 -4.898438 C 5.148438 -4.996094 5.195312 -5.066406 5.210938 -5.113281 C 5.230469 -5.164062 5.238281 -5.191406 5.238281 -5.203125 C 5.238281 -5.273438 5.195312 -5.332031 5.109375 -5.386719 C 5.023438 -5.441406 4.859375 -5.472656 4.605469 -5.484375 L 4.605469 -5.921875 L 6.984375 -5.921875 L 6.984375 -5.484375 C 6.789062 -5.453125 6.597656 -5.386719 6.414062 -5.289062 C 6.234375 -5.1875 6.042969 -5.03125 5.84375 -4.820312 C 5.53125 -4.5 5.308594 -4.265625 5.167969 -4.117188 C 5.027344 -3.964844 4.792969 -3.71875 4.464844 -3.371094 C 4.648438 -3.113281 4.914062 -2.738281 5.257812 -2.246094 C 5.605469 -1.75 5.902344 -1.335938 6.152344 -0.996094 C 6.261719 -0.84375 6.382812 -0.722656 6.515625 -0.625 C 6.648438 -0.53125 6.859375 -0.46875 7.148438 -0.4375 Z "/>
</g>
<g id="glyph-0-6">
</g>
<g id="glyph-0-7">
<path d="M 5.0625 1.957031 C 4.515625 1.886719 3.980469 1.726562 3.457031 1.472656 C 2.933594 1.222656 2.46875 0.871094 2.058594 0.417969 C 1.644531 -0.0351562 1.3125 -0.59375 1.0625 -1.257812 C 0.8125 -1.917969 0.6875 -2.699219 0.6875 -3.59375 C 0.6875 -4.488281 0.8125 -5.265625 1.0625 -5.929688 C 1.3125 -6.589844 1.644531 -7.148438 2.058594 -7.601562 C 2.46875 -8.054688 2.933594 -8.402344 3.457031 -8.65625 C 3.980469 -8.910156 4.515625 -9.070312 5.0625 -9.144531 L 5.0625 -8.605469 C 4.308594 -8.464844 3.730469 -7.980469 3.332031 -7.152344 C 2.929688 -6.324219 2.726562 -5.136719 2.726562 -3.59375 C 2.726562 -2.050781 2.929688 -0.863281 3.332031 -0.03125 C 3.730469 0.796875 4.308594 1.28125 5.0625 1.421875 Z "/>
</g>
<g id="glyph-0-8">
<path d="M 9.5625 -7.992188 C 9.429688 -7.980469 9.304688 -7.957031 9.183594 -7.917969 C 9.066406 -7.882812 8.941406 -7.828125 8.816406 -7.753906 C 8.644531 -7.652344 8.511719 -7.546875 8.417969 -7.433594 C 8.324219 -7.320312 8.230469 -7.164062 8.140625 -6.964844 C 8.015625 -6.691406 7.84375 -6.289062 7.621094 -5.761719 C 7.398438 -5.234375 7.144531 -4.636719 6.855469 -3.960938 C 6.601562 -3.359375 6.328125 -2.695312 6.03125 -1.976562 C 5.734375 -1.253906 5.449219 -0.566406 5.179688 0.09375 L 3.980469 0.09375 C 3.421875 -1.269531 2.855469 -2.65625 2.28125 -4.0625 C 1.703125 -5.472656 1.296875 -6.453125 1.0625 -7 C 0.972656 -7.199219 0.882812 -7.351562 0.796875 -7.449219 C 0.710938 -7.550781 0.574219 -7.65625 0.386719 -7.765625 C 0.253906 -7.839844 0.132812 -7.894531 0.03125 -7.921875 C -0.0742188 -7.953125 -0.210938 -7.980469 -0.382812 -8.003906 L -0.382812 -8.46875 L 4.207031 -8.46875 L 4.207031 -8.015625 C 3.777344 -7.964844 3.488281 -7.910156 3.332031 -7.851562 C 3.179688 -7.792969 3.105469 -7.722656 3.105469 -7.632812 C 3.105469 -7.589844 3.109375 -7.542969 3.125 -7.492188 C 3.140625 -7.441406 3.160156 -7.375 3.1875 -7.292969 C 3.316406 -6.941406 3.546875 -6.371094 3.878906 -5.578125 C 4.214844 -4.785156 4.710938 -3.578125 5.367188 -1.949219 C 5.765625 -2.941406 6.101562 -3.777344 6.367188 -4.460938 C 6.632812 -5.144531 6.867188 -5.75 7.070312 -6.273438 C 7.171875 -6.527344 7.253906 -6.765625 7.320312 -6.984375 C 7.386719 -7.207031 7.417969 -7.371094 7.417969 -7.484375 C 7.417969 -7.609375 7.328125 -7.71875 7.144531 -7.804688 C 6.960938 -7.890625 6.621094 -7.953125 6.128906 -7.992188 L 6.128906 -8.46875 L 9.5625 -8.46875 Z "/>
</g>
<g id="glyph-0-9">
<path d="M 6.761719 -1.425781 C 6.621094 -1.199219 6.453125 -0.984375 6.257812 -0.785156 C 6.0625 -0.582031 5.835938 -0.410156 5.585938 -0.269531 C 5.320312 -0.117188 5.050781 -0.00390625 4.777344 0.0742188 C 4.503906 0.152344 4.191406 0.191406 3.835938 0.191406 C 3.25 0.191406 2.742188 0.109375 2.3125 -0.0585938 C 1.886719 -0.226562 1.53125 -0.453125 1.253906 -0.734375 C 0.976562 -1.015625 0.765625 -1.351562 0.628906 -1.734375 C 0.492188 -2.117188 0.421875 -2.535156 0.421875 -2.984375 C 0.421875 -3.390625 0.5 -3.777344 0.648438 -4.152344 C 0.796875 -4.523438 1.007812 -4.855469 1.28125 -5.144531 C 1.554688 -5.425781 1.894531 -5.65625 2.308594 -5.832031 C 2.71875 -6.007812 3.179688 -6.09375 3.6875 -6.09375 C 4.246094 -6.09375 4.703125 -6.027344 5.0625 -5.890625 C 5.417969 -5.753906 5.714844 -5.566406 5.949219 -5.328125 C 6.175781 -5.101562 6.34375 -4.835938 6.445312 -4.527344 C 6.550781 -4.21875 6.601562 -3.894531 6.601562 -3.558594 L 6.601562 -3.167969 L 2.566406 -3.167969 C 2.566406 -2.351562 2.722656 -1.734375 3.039062 -1.308594 C 3.351562 -0.882812 3.851562 -0.667969 4.535156 -0.667969 C 4.910156 -0.667969 5.246094 -0.769531 5.542969 -0.976562 C 5.84375 -1.179688 6.097656 -1.441406 6.308594 -1.753906 L 6.761719 -1.425781 M 4.480469 -3.695312 C 4.480469 -3.933594 4.46875 -4.175781 4.445312 -4.429688 C 4.421875 -4.679688 4.378906 -4.882812 4.320312 -5.042969 C 4.253906 -5.230469 4.160156 -5.371094 4.042969 -5.464844 C 3.925781 -5.5625 3.777344 -5.609375 3.597656 -5.609375 C 3.292969 -5.609375 3.046875 -5.453125 2.863281 -5.144531 C 2.683594 -4.835938 2.582031 -4.34375 2.566406 -3.671875 Z "/>
</g>
<g id="glyph-0-10">
<path d="M 3.753906 0.191406 C 3.199219 0.191406 2.710938 0.109375 2.289062 -0.0507812 C 1.863281 -0.210938 1.515625 -0.433594 1.242188 -0.710938 C 0.96875 -0.992188 0.761719 -1.328125 0.625 -1.710938 C 0.492188 -2.097656 0.421875 -2.519531 0.421875 -2.972656 C 0.421875 -3.386719 0.507812 -3.78125 0.671875 -4.152344 C 0.835938 -4.527344 1.058594 -4.855469 1.34375 -5.136719 C 1.632812 -5.429688 1.996094 -5.660156 2.425781 -5.832031 C 2.859375 -6.007812 3.335938 -6.09375 3.855469 -6.09375 C 4.585938 -6.09375 5.167969 -5.957031 5.59375 -5.679688 C 6.019531 -5.402344 6.230469 -5.027344 6.230469 -4.558594 C 6.230469 -4.273438 6.15625 -4.042969 6.003906 -3.867188 C 5.851562 -3.691406 5.59375 -3.605469 5.222656 -3.605469 C 4.921875 -3.605469 4.675781 -3.675781 4.472656 -3.820312 C 4.273438 -3.960938 4.171875 -4.148438 4.171875 -4.378906 C 4.171875 -4.574219 4.203125 -4.769531 4.265625 -4.960938 C 4.332031 -5.152344 4.367188 -5.296875 4.378906 -5.394531 C 4.335938 -5.464844 4.28125 -5.519531 4.214844 -5.558594 C 4.144531 -5.597656 4.039062 -5.617188 3.898438 -5.617188 C 3.71875 -5.617188 3.554688 -5.574219 3.40625 -5.492188 C 3.261719 -5.40625 3.125 -5.261719 2.996094 -5.050781 C 2.871094 -4.851562 2.773438 -4.582031 2.699219 -4.25 C 2.628906 -3.914062 2.589844 -3.511719 2.589844 -3.042969 C 2.589844 -2.335938 2.757812 -1.765625 3.089844 -1.332031 C 3.421875 -0.898438 3.816406 -0.679688 4.277344 -0.679688 C 4.722656 -0.679688 5.070312 -0.777344 5.332031 -0.976562 C 5.59375 -1.171875 5.824219 -1.453125 6.027344 -1.8125 L 6.476562 -1.503906 C 6.351562 -1.261719 6.203125 -1.039062 6.035156 -0.839844 C 5.863281 -0.636719 5.65625 -0.460938 5.417969 -0.304688 C 5.167969 -0.140625 4.914062 -0.0195312 4.65625 0.0664062 C 4.398438 0.148438 4.097656 0.191406 3.753906 0.191406 Z "/>
</g>
<g id="glyph-0-11">
<path d="M 6.441406 -5.214844 C 6.734375 -4.941406 6.957031 -4.613281 7.113281 -4.230469 C 7.269531 -3.847656 7.347656 -3.4375 7.347656 -2.988281 C 7.347656 -2.546875 7.269531 -2.132812 7.117188 -1.738281 C 6.964844 -1.347656 6.738281 -1.011719 6.445312 -0.734375 C 6.132812 -0.4375 5.757812 -0.207031 5.320312 -0.046875 C 4.886719 0.113281 4.386719 0.191406 3.824219 0.191406 C 3.339844 0.191406 2.894531 0.121094 2.484375 -0.0195312 C 2.078125 -0.15625 1.71875 -0.367188 1.402344 -0.644531 C 1.101562 -0.910156 0.863281 -1.242188 0.6875 -1.632812 C 0.511719 -2.023438 0.421875 -2.460938 0.421875 -2.949219 C 0.421875 -3.425781 0.5 -3.851562 0.652344 -4.222656 C 0.808594 -4.59375 1.035156 -4.925781 1.34375 -5.214844 C 1.636719 -5.496094 2 -5.710938 2.433594 -5.863281 C 2.863281 -6.015625 3.347656 -6.09375 3.878906 -6.09375 C 4.4375 -6.09375 4.925781 -6.015625 5.351562 -5.863281 C 5.773438 -5.710938 6.136719 -5.496094 6.441406 -5.214844 M 4.910156 -1.082031 C 5 -1.304688 5.0625 -1.574219 5.105469 -1.890625 C 5.148438 -2.210938 5.167969 -2.582031 5.167969 -3 C 5.167969 -3.28125 5.148438 -3.597656 5.109375 -3.957031 C 5.070312 -4.316406 5.007812 -4.597656 4.929688 -4.804688 C 4.835938 -5.054688 4.703125 -5.25 4.53125 -5.394531 C 4.363281 -5.539062 4.148438 -5.609375 3.890625 -5.609375 C 3.609375 -5.609375 3.382812 -5.53125 3.214844 -5.378906 C 3.042969 -5.222656 2.914062 -5.019531 2.824219 -4.773438 C 2.738281 -4.546875 2.683594 -4.28125 2.648438 -3.976562 C 2.617188 -3.671875 2.601562 -3.355469 2.601562 -3.027344 C 2.601562 -2.59375 2.617188 -2.234375 2.644531 -1.949219 C 2.671875 -1.664062 2.738281 -1.378906 2.847656 -1.09375 C 2.9375 -0.84375 3.070312 -0.652344 3.242188 -0.507812 C 3.410156 -0.363281 3.628906 -0.292969 3.890625 -0.292969 C 4.128906 -0.292969 4.335938 -0.359375 4.507812 -0.492188 C 4.675781 -0.625 4.8125 -0.820312 4.910156 -1.082031 Z "/>
</g>
<g id="glyph-0-12">
<path d="M 4.78125 -3.59375 C 4.78125 -2.699219 4.65625 -1.917969 4.40625 -1.257812 C 4.152344 -0.59375 3.820312 -0.0351562 3.40625 0.417969 C 2.996094 0.867188 2.53125 1.21875 2.007812 1.472656 C 1.484375 1.722656 0.949219 1.886719 0.40625 1.957031 L 0.40625 1.421875 C 1.15625 1.28125 1.734375 0.796875 2.136719 -0.03125 C 2.539062 -0.863281 2.738281 -2.050781 2.738281 -3.59375 C 2.738281 -5.136719 2.539062 -6.324219 2.136719 -7.152344 C 1.734375 -7.980469 1.15625 -8.464844 0.40625 -8.605469 L 0.40625 -9.144531 C 0.949219 -9.070312 1.484375 -8.910156 2.007812 -8.65625 C 2.53125 -8.402344 2.996094 -8.054688 3.40625 -7.601562 C 3.820312 -7.148438 4.152344 -6.589844 4.40625 -5.929688 C 4.65625 -5.265625 4.78125 -4.488281 4.78125 -3.59375 Z "/>
</g>
<g id="glyph-0-13">
<path d="M 8.019531 -6.207031 L 7.554688 -6.207031 C 7.441406 -6.535156 7.238281 -6.886719 6.945312 -7.257812 C 6.652344 -7.628906 6.375 -7.832031 6.113281 -7.867188 C 5.996094 -7.882812 5.835938 -7.894531 5.636719 -7.90625 C 5.4375 -7.917969 5.253906 -7.925781 5.089844 -7.925781 L 3.773438 -7.925781 L 3.773438 -4.605469 L 4.613281 -4.605469 C 4.851562 -4.605469 5.058594 -4.632812 5.234375 -4.6875 C 5.410156 -4.742188 5.5625 -4.839844 5.699219 -4.976562 C 5.800781 -5.078125 5.894531 -5.242188 5.988281 -5.476562 C 6.082031 -5.707031 6.140625 -5.910156 6.160156 -6.074219 L 6.613281 -6.074219 L 6.613281 -2.511719 L 6.160156 -2.511719 C 6.144531 -2.691406 6.082031 -2.910156 5.972656 -3.167969 C 5.867188 -3.421875 5.773438 -3.59375 5.699219 -3.675781 C 5.585938 -3.804688 5.4375 -3.898438 5.257812 -3.960938 C 5.078125 -4.023438 4.863281 -4.050781 4.613281 -4.050781 L 3.773438 -4.050781 L 3.773438 -1.246094 C 3.773438 -1.105469 3.796875 -0.980469 3.851562 -0.878906 C 3.90625 -0.777344 4.007812 -0.695312 4.160156 -0.632812 C 4.246094 -0.597656 4.367188 -0.5625 4.519531 -0.535156 C 4.675781 -0.503906 4.828125 -0.480469 4.976562 -0.464844 L 4.976562 0 L 0.410156 0 L 0.410156 -0.464844 C 0.527344 -0.476562 0.679688 -0.496094 0.871094 -0.515625 C 1.0625 -0.539062 1.195312 -0.566406 1.269531 -0.597656 C 1.414062 -0.652344 1.515625 -0.730469 1.570312 -0.828125 C 1.625 -0.929688 1.652344 -1.054688 1.652344 -1.210938 L 1.652344 -7.1875 C 1.652344 -7.320312 1.628906 -7.4375 1.578125 -7.539062 C 1.527344 -7.640625 1.425781 -7.726562 1.269531 -7.792969 C 1.160156 -7.84375 1.011719 -7.886719 0.828125 -7.925781 C 0.648438 -7.964844 0.507812 -7.992188 0.410156 -8.003906 L 0.410156 -8.46875 L 8.019531 -8.46875 Z "/>
</g>
<g id="glyph-0-14">
<path d="M 12.199219 0 L 8.652344 0 L 8.652344 -0.4375 C 8.742188 -0.449219 8.832031 -0.457031 8.925781 -0.464844 C 9.019531 -0.472656 9.097656 -0.492188 9.164062 -0.523438 C 9.25 -0.566406 9.304688 -0.632812 9.328125 -0.726562 C 9.351562 -0.820312 9.363281 -0.9375 9.363281 -1.085938 L 9.363281 -3.875 C 9.363281 -4.28125 9.292969 -4.589844 9.144531 -4.796875 C 9 -5 8.792969 -5.101562 8.519531 -5.101562 C 8.347656 -5.101562 8.195312 -5.074219 8.0625 -5.023438 C 7.929688 -4.96875 7.804688 -4.902344 7.695312 -4.820312 C 7.578125 -4.738281 7.488281 -4.65625 7.425781 -4.570312 C 7.359375 -4.488281 7.308594 -4.417969 7.261719 -4.355469 L 7.261719 -1.152344 C 7.261719 -1.007812 7.28125 -0.890625 7.3125 -0.800781 C 7.347656 -0.714844 7.410156 -0.640625 7.5 -0.589844 C 7.5625 -0.554688 7.636719 -0.523438 7.714844 -0.496094 C 7.796875 -0.46875 7.882812 -0.449219 7.972656 -0.4375 L 7.972656 0 L 4.582031 0 L 4.582031 -0.4375 C 4.660156 -0.445312 4.75 -0.453125 4.855469 -0.464844 C 4.960938 -0.476562 5.042969 -0.496094 5.09375 -0.523438 C 5.175781 -0.570312 5.230469 -0.632812 5.253906 -0.714844 C 5.28125 -0.800781 5.292969 -0.921875 5.292969 -1.085938 L 5.292969 -3.875 C 5.292969 -4.28125 5.222656 -4.589844 5.074219 -4.796875 C 4.929688 -5 4.722656 -5.101562 4.449219 -5.101562 C 4.277344 -5.101562 4.125 -5.074219 3.992188 -5.023438 C 3.859375 -4.96875 3.734375 -4.902344 3.625 -4.820312 C 3.507812 -4.738281 3.417969 -4.65625 3.355469 -4.570312 C 3.289062 -4.488281 3.238281 -4.417969 3.191406 -4.355469 L 3.191406 -1.152344 C 3.191406 -1.011719 3.210938 -0.898438 3.246094 -0.804688 C 3.28125 -0.714844 3.347656 -0.640625 3.4375 -0.589844 C 3.5 -0.554688 3.574219 -0.523438 3.65625 -0.496094 C 3.738281 -0.46875 3.824219 -0.449219 3.914062 -0.4375 L 3.914062 0 L 0.339844 0 L 0.339844 -0.4375 C 0.445312 -0.445312 0.546875 -0.453125 0.644531 -0.464844 C 0.742188 -0.476562 0.828125 -0.496094 0.902344 -0.523438 C 1.027344 -0.574219 1.117188 -0.640625 1.164062 -0.730469 C 1.210938 -0.820312 1.234375 -0.9375 1.234375 -1.085938 L 1.234375 -4.558594 C 1.234375 -4.6875 1.203125 -4.8125 1.132812 -4.933594 C 1.066406 -5.054688 0.984375 -5.148438 0.890625 -5.214844 C 0.816406 -5.265625 0.726562 -5.304688 0.617188 -5.335938 C 0.507812 -5.367188 0.386719 -5.390625 0.257812 -5.402344 L 0.257812 -5.835938 L 3.101562 -5.992188 L 3.191406 -5.902344 L 3.191406 -5.0625 L 3.21875 -5.0625 C 3.328125 -5.160156 3.460938 -5.277344 3.613281 -5.417969 C 3.765625 -5.554688 3.910156 -5.664062 4.046875 -5.746094 C 4.195312 -5.84375 4.382812 -5.921875 4.613281 -5.984375 C 4.84375 -6.050781 5.097656 -6.082031 5.371094 -6.082031 C 5.824219 -6.082031 6.203125 -5.984375 6.507812 -5.785156 C 6.8125 -5.589844 7.027344 -5.328125 7.15625 -5 L 7.210938 -5 C 7.324219 -5.109375 7.464844 -5.234375 7.632812 -5.378906 C 7.800781 -5.527344 7.953125 -5.640625 8.09375 -5.730469 C 8.246094 -5.828125 8.445312 -5.914062 8.6875 -5.980469 C 8.925781 -6.046875 9.183594 -6.082031 9.460938 -6.082031 C 10.058594 -6.082031 10.523438 -5.90625 10.847656 -5.550781 C 11.171875 -5.195312 11.332031 -4.691406 11.332031 -4.039062 L 11.332031 -1.140625 C 11.332031 -0.992188 11.355469 -0.875 11.398438 -0.785156 C 11.441406 -0.695312 11.523438 -0.625 11.636719 -0.578125 C 11.703125 -0.550781 11.78125 -0.523438 11.875 -0.496094 C 11.96875 -0.46875 12.074219 -0.449219 12.199219 -0.4375 Z "/>
</g>
</g>
</defs>
<g fill="rgb(30.980392%, 61.960784%, 100%)" fill-opacity="1">
<use xlink:href="#glyph-0-0" x="30" y="31.208008"/>
<use xlink:href="#glyph-0-1" x="43" y="31.208008"/>
<use xlink:href="#glyph-0-2" x="50" y="31.208008"/>
<use xlink:href="#glyph-0-3" x="55" y="31.208008"/>
<use xlink:href="#glyph-0-4" x="61" y="31.208008"/>
<use xlink:href="#glyph-0-5" x="65" y="31.208008"/>
<use xlink:href="#glyph-0-6" x="72" y="31.208008"/>
<use xlink:href="#glyph-0-7" x="75" y="31.208008"/>
<use xlink:href="#glyph-0-8" x="80" y="31.208008"/>
<use xlink:href="#glyph-0-9" x="89" y="31.208008"/>
<use xlink:href="#glyph-0-10" x="96" y="31.208008"/>
<use xlink:href="#glyph-0-2" x="102" y="31.208008"/>
<use xlink:href="#glyph-0-11" x="107" y="31.208008"/>
<use xlink:href="#glyph-0-3" x="115" y="31.208008"/>
<use xlink:href="#glyph-0-12" x="121" y="31.208008"/>
<use xlink:href="#glyph-0-6" x="126" y="31.208008"/>
<use xlink:href="#glyph-0-13" x="129" y="31.208008"/>
<use xlink:href="#glyph-0-11" x="137" y="31.208008"/>
<use xlink:href="#glyph-0-3" x="145" y="31.208008"/>
<use xlink:href="#glyph-0-14" x="151" y="31.208008"/>
</g>
</svg>
