<?xml version="1.0" encoding="UTF-8"?>
<svg xmlns="http://www.w3.org/2000/svg" xmlns:xlink="http://www.w3.org/1999/xlink" width="854" height="480" viewBox="0 0 854 480">
<defs>
<g>
<g id="glyph-0-0">
<path d="M 3.078125 -0.0234375 L 2.554688 -0.0234375 L 2.554688 0.902344 L 1.734375 0.902344 L 1.734375 -0.0234375 L 0.121094 -0.0234375 L 0.121094 -0.472656 L 1.871094 -2.691406 L 2.554688 -2.691406 L 2.554688 -0.539062 L 3.078125 -0.539062 L 3.078125 -0.0234375 M 1.734375 -0.539062 L 1.734375 -2.109375 L 0.496094 -0.539062 Z "/>
</g>
<g id="glyph-0-1">
<path d="M 1.304688 -0.40625 C 1.304688 -0.277344 1.257812 -0.164062 1.160156 -0.0703125 C 1.066406 0.0234375 0.953125 0.0703125 0.824219 0.0703125 C 0.691406 0.0703125 0.578125 0.0234375 0.480469 -0.0703125 C 0.386719 -0.164062 0.339844 -0.273438 0.339844 -0.40625 C 0.339844 -0.535156 0.386719 -0.648438 0.480469 -0.742188 C 0.578125 -0.839844 0.691406 -0.886719 0.824219 -0.886719 C 0.953125 -0.886719 1.066406 -0.839844 1.160156 -0.742188 C 1.257812 -0.644531 1.304688 -0.535156 1.304688 -0.40625 Z "/>
</g>
<g id="glyph-0-2">
</g>
<g id="glyph-0-3">
<path d="M 1.984375 0.09375 C 1.730469 0.09375 1.492188 0.0546875 1.273438 -0.0273438 C 1.050781 -0.109375 0.859375 -0.230469 0.695312 -0.386719 C 0.53125 -0.539062 0.40625 -0.730469 0.3125 -0.953125 C 0.21875 -1.179688 0.171875 -1.429688 0.171875 -1.699219 C 0.171875 -1.96875 0.21875 -2.21875 0.3125 -2.445312 C 0.40625 -2.675781 0.539062 -2.875 0.707031 -3.042969 C 0.875 -3.207031 1.074219 -3.332031 1.304688 -3.425781 C 1.539062 -3.515625 1.789062 -3.558594 2.054688 -3.558594 C 2.246094 -3.558594 2.421875 -3.535156 2.578125 -3.488281 C 2.734375 -3.441406 2.871094 -3.390625 2.976562 -3.328125 L 3.128906 -3.464844 L 3.34375 -3.464844 L 3.363281 -2.199219 L 3.148438 -2.199219 C 3.027344 -2.585938 2.882812 -2.871094 2.710938 -3.050781 C 2.539062 -3.230469 2.332031 -3.324219 2.085938 -3.324219 C 1.78125 -3.324219 1.546875 -3.1875 1.390625 -2.917969 C 1.230469 -2.648438 1.148438 -2.269531 1.148438 -1.78125 C 1.148438 -1.507812 1.175781 -1.273438 1.230469 -1.078125 C 1.285156 -0.882812 1.355469 -0.726562 1.445312 -0.605469 C 1.539062 -0.480469 1.652344 -0.390625 1.777344 -0.332031 C 1.90625 -0.277344 2.050781 -0.246094 2.207031 -0.246094 C 2.433594 -0.246094 2.636719 -0.308594 2.8125 -0.433594 C 2.992188 -0.554688 3.15625 -0.742188 3.300781 -0.992188 L 3.511719 -0.867188 C 3.441406 -0.722656 3.359375 -0.59375 3.273438 -0.480469 C 3.183594 -0.367188 3.078125 -0.273438 2.960938 -0.191406 C 2.832031 -0.101562 2.691406 -0.03125 2.535156 0.0195312 C 2.378906 0.0703125 2.195312 0.09375 1.984375 0.09375 Z "/>
</g>
<g id="glyph-0-4">
<path d="M 2.632812 -2.132812 C 2.753906 -2.023438 2.847656 -1.886719 2.910156 -1.730469 C 2.972656 -1.574219 3.003906 -1.40625 3.003906 -1.222656 C 3.003906 -1.042969 2.972656 -0.871094 2.910156 -0.710938 C 2.847656 -0.550781 2.757812 -0.414062 2.636719 -0.300781 C 2.507812 -0.179688 2.355469 -0.0859375 2.175781 -0.0195312 C 2 0.046875 1.792969 0.078125 1.566406 0.078125 C 1.367188 0.078125 1.183594 0.0507812 1.015625 -0.0078125 C 0.851562 -0.0625 0.703125 -0.148438 0.574219 -0.265625 C 0.449219 -0.371094 0.351562 -0.507812 0.28125 -0.667969 C 0.210938 -0.828125 0.171875 -1.007812 0.171875 -1.207031 C 0.171875 -1.402344 0.203125 -1.574219 0.265625 -1.726562 C 0.328125 -1.878906 0.425781 -2.015625 0.550781 -2.132812 C 0.667969 -2.246094 0.816406 -2.335938 0.996094 -2.398438 C 1.171875 -2.460938 1.367188 -2.492188 1.585938 -2.492188 C 1.816406 -2.492188 2.015625 -2.460938 2.1875 -2.398438 C 2.363281 -2.335938 2.511719 -2.246094 2.632812 -2.132812 M 2.007812 -0.441406 C 2.046875 -0.53125 2.070312 -0.644531 2.089844 -0.773438 C 2.105469 -0.902344 2.113281 -1.054688 2.113281 -1.226562 C 2.113281 -1.34375 2.105469 -1.472656 2.089844 -1.617188 C 2.074219 -1.765625 2.050781 -1.878906 2.015625 -1.964844 C 1.976562 -2.066406 1.921875 -2.148438 1.855469 -2.207031 C 1.785156 -2.265625 1.699219 -2.296875 1.59375 -2.296875 C 1.476562 -2.296875 1.382812 -2.261719 1.316406 -2.199219 C 1.246094 -2.136719 1.191406 -2.054688 1.15625 -1.953125 C 1.121094 -1.859375 1.097656 -1.75 1.085938 -1.628906 C 1.070312 -1.503906 1.0625 -1.371094 1.0625 -1.238281 C 1.0625 -1.058594 1.070312 -0.914062 1.082031 -0.796875 C 1.09375 -0.679688 1.121094 -0.5625 1.164062 -0.445312 C 1.203125 -0.347656 1.253906 -0.265625 1.324219 -0.207031 C 1.394531 -0.148438 1.484375 -0.121094 1.59375 -0.121094 C 1.6875 -0.121094 1.773438 -0.148438 1.84375 -0.203125 C 1.914062 -0.257812 1.96875 -0.335938 2.007812 -0.441406 Z "/>
</g>
<g id="glyph-0-5">
<path d="M 3.273438 0 L 2.125 0 C 1.980469 -0.25 1.851562 -0.460938 1.734375 -0.632812 C 1.617188 -0.804688 1.507812 -0.964844 1.402344 -1.113281 L 1.257812 -0.992188 L 1.257812 -0.460938 C 1.257812 -0.398438 1.269531 -0.351562 1.285156 -0.316406 C 1.300781 -0.277344 1.335938 -0.25 1.382812 -0.230469 C 1.414062 -0.21875 1.449219 -0.207031 1.488281 -0.199219 C 1.527344 -0.1875 1.566406 -0.179688 1.605469 -0.179688 L 1.605469 0 L 0.0859375 0 L 0.0859375 -0.179688 C 0.128906 -0.179688 0.167969 -0.1875 0.210938 -0.191406 C 0.25 -0.199219 0.289062 -0.203125 0.320312 -0.214844 C 0.371094 -0.234375 0.40625 -0.261719 0.425781 -0.296875 C 0.445312 -0.335938 0.453125 -0.382812 0.453125 -0.445312 L 0.453125 -3.167969 C 0.453125 -3.21875 0.441406 -3.277344 0.417969 -3.332031 C 0.394531 -3.390625 0.359375 -3.433594 0.316406 -3.464844 C 0.285156 -3.484375 0.238281 -3.5 0.175781 -3.511719 C 0.113281 -3.527344 0.0585938 -3.535156 0.0078125 -3.539062 L 0.0078125 -3.714844 L 1.222656 -3.78125 L 1.257812 -3.742188 L 1.257812 -1.222656 C 1.378906 -1.328125 1.515625 -1.453125 1.664062 -1.59375 C 1.816406 -1.734375 1.9375 -1.851562 2.027344 -1.945312 C 2.082031 -2 2.109375 -2.042969 2.117188 -2.070312 C 2.121094 -2.101562 2.125 -2.117188 2.125 -2.125 C 2.125 -2.152344 2.101562 -2.175781 2.046875 -2.195312 C 1.996094 -2.214844 1.917969 -2.234375 1.816406 -2.25 L 1.816406 -2.421875 L 3.054688 -2.421875 L 3.054688 -2.253906 C 2.894531 -2.207031 2.769531 -2.164062 2.683594 -2.125 C 2.597656 -2.085938 2.507812 -2.03125 2.40625 -1.964844 C 2.339844 -1.921875 2.273438 -1.875 2.210938 -1.828125 C 2.148438 -1.777344 2.078125 -1.71875 1.996094 -1.648438 C 2.15625 -1.417969 2.304688 -1.203125 2.4375 -1.003906 C 2.574219 -0.808594 2.714844 -0.601562 2.863281 -0.378906 C 2.914062 -0.304688 2.976562 -0.253906 3.050781 -0.226562 C 3.125 -0.199219 3.199219 -0.183594 3.273438 -0.179688 Z "/>
</g>
<g id="glyph-0-6">
<path d="M 1.078125 -3.34375 C 1.078125 -3.253906 1.039062 -3.082031 0.957031 -2.824219 C 0.878906 -2.566406 0.8125 -2.296875 0.757812 -2.011719 L 0.589844 -2.011719 C 0.53125 -2.296875 0.464844 -2.566406 0.386719 -2.824219 C 0.308594 -3.082031 0.269531 -3.253906 0.269531 -3.34375 C 0.269531 -3.449219 0.304688 -3.539062 0.375 -3.617188 C 0.445312 -3.695312 0.542969 -3.734375 0.671875 -3.734375 C 0.800781 -3.734375 0.898438 -3.695312 0.96875 -3.617188 C 1.042969 -3.539062 1.078125 -3.449219 1.078125 -3.34375 Z "/>
</g>
<g id="glyph-0-7">
<path d="M 1.273438 0.0820312 C 1.113281 0.0820312 0.960938 0.0585938 0.808594 0.0117188 C 0.660156 -0.03125 0.542969 -0.0820312 0.460938 -0.132812 L 0.386719 0.03125 L 0.195312 0.03125 L 0.164062 -0.878906 L 0.34375 -0.878906 C 0.367188 -0.804688 0.40625 -0.722656 0.464844 -0.632812 C 0.519531 -0.539062 0.585938 -0.457031 0.660156 -0.382812 C 0.734375 -0.308594 0.824219 -0.25 0.921875 -0.199219 C 1.019531 -0.148438 1.125 -0.121094 1.238281 -0.121094 C 1.386719 -0.121094 1.496094 -0.152344 1.570312 -0.207031 C 1.640625 -0.265625 1.675781 -0.355469 1.675781 -0.476562 C 1.675781 -0.542969 1.660156 -0.59375 1.628906 -0.636719 C 1.597656 -0.679688 1.550781 -0.714844 1.492188 -0.746094 C 1.429688 -0.78125 1.359375 -0.808594 1.285156 -0.828125 C 1.210938 -0.851562 1.117188 -0.878906 1.007812 -0.914062 C 0.894531 -0.945312 0.800781 -0.980469 0.722656 -1.011719 C 0.640625 -1.046875 0.5625 -1.097656 0.476562 -1.167969 C 0.402344 -1.234375 0.34375 -1.308594 0.300781 -1.398438 C 0.257812 -1.488281 0.234375 -1.59375 0.234375 -1.71875 C 0.234375 -1.949219 0.332031 -2.132812 0.523438 -2.273438 C 0.714844 -2.417969 0.96875 -2.488281 1.28125 -2.488281 C 1.429688 -2.488281 1.566406 -2.472656 1.691406 -2.441406 C 1.816406 -2.414062 1.917969 -2.378906 2.003906 -2.34375 L 2.054688 -2.488281 L 2.242188 -2.488281 L 2.28125 -1.65625 L 2.109375 -1.65625 C 2.050781 -1.824219 1.953125 -1.96875 1.816406 -2.09375 C 1.679688 -2.214844 1.527344 -2.277344 1.371094 -2.277344 C 1.246094 -2.277344 1.144531 -2.25 1.074219 -2.199219 C 1.003906 -2.148438 0.964844 -2.074219 0.96875 -1.984375 C 0.964844 -1.859375 1.019531 -1.769531 1.125 -1.714844 C 1.230469 -1.660156 1.375 -1.605469 1.5625 -1.558594 C 1.855469 -1.484375 2.066406 -1.378906 2.203125 -1.25 C 2.335938 -1.121094 2.40625 -0.957031 2.40625 -0.757812 C 2.40625 -0.488281 2.300781 -0.28125 2.089844 -0.136719 C 1.882812 0.0078125 1.609375 0.0820312 1.273438 0.0820312 Z "/>
</g>
<g id="glyph-0-8">
<path d="M 3.289062 -3.109375 C 3.5 -2.96875 3.671875 -2.785156 3.800781 -2.554688 C 3.929688 -2.324219 3.996094 -2.042969 3.996094 -1.710938 C 3.996094 -1.414062 3.9375 -1.160156 3.820312 -0.945312 C 3.707031 -0.726562 3.550781 -0.546875 3.359375 -0.410156 C 3.164062 -0.273438 2.941406 -0.167969 2.695312 -0.101562 C 2.445312 -0.0351562 2.1875 0 1.914062 0 L 0.167969 0 L 0.167969 -0.191406 C 0.21875 -0.191406 0.285156 -0.195312 0.363281 -0.203125 C 0.441406 -0.214844 0.492188 -0.222656 0.519531 -0.234375 C 0.578125 -0.257812 0.621094 -0.292969 0.640625 -0.332031 C 0.664062 -0.375 0.675781 -0.425781 0.675781 -0.484375 L 0.675781 -2.9375 C 0.675781 -2.996094 0.664062 -3.042969 0.644531 -3.089844 C 0.625 -3.132812 0.582031 -3.171875 0.519531 -3.199219 C 0.457031 -3.226562 0.394531 -3.246094 0.324219 -3.253906 C 0.253906 -3.265625 0.199219 -3.269531 0.164062 -3.273438 L 0.164062 -3.464844 L 2.007812 -3.464844 C 2.203125 -3.464844 2.414062 -3.4375 2.640625 -3.390625 C 2.863281 -3.339844 3.082031 -3.246094 3.289062 -3.109375 M 2.789062 -0.625 C 2.871094 -0.753906 2.929688 -0.910156 2.964844 -1.089844 C 3 -1.269531 3.019531 -1.476562 3.019531 -1.710938 C 3.019531 -1.941406 2.996094 -2.148438 2.945312 -2.339844 C 2.898438 -2.527344 2.828125 -2.6875 2.730469 -2.820312 C 2.636719 -2.957031 2.519531 -3.058594 2.378906 -3.132812 C 2.238281 -3.207031 2.078125 -3.242188 1.898438 -3.242188 C 1.84375 -3.242188 1.777344 -3.242188 1.707031 -3.238281 C 1.632812 -3.234375 1.578125 -3.234375 1.542969 -3.234375 L 1.542969 -0.601562 C 1.542969 -0.542969 1.550781 -0.492188 1.566406 -0.449219 C 1.582031 -0.402344 1.609375 -0.363281 1.644531 -0.328125 C 1.683594 -0.296875 1.730469 -0.269531 1.785156 -0.25 C 1.839844 -0.230469 1.910156 -0.222656 1.996094 -0.222656 C 2.179688 -0.222656 2.339844 -0.257812 2.46875 -0.324219 C 2.601562 -0.394531 2.710938 -0.492188 2.789062 -0.625 Z "/>
</g>
<g id="glyph-0-9">
<path d="M 1.683594 0 L 0.140625 0 L 0.140625 -0.179688 C 0.183594 -0.179688 0.226562 -0.1875 0.265625 -0.191406 C 0.308594 -0.195312 0.34375 -0.203125 0.371094 -0.214844 C 0.421875 -0.234375 0.460938 -0.261719 0.480469 -0.300781 C 0.503906 -0.335938 0.511719 -0.382812 0.511719 -0.445312 L 0.511719 -1.867188 C 0.511719 -1.921875 0.5 -1.972656 0.472656 -2.015625 C 0.449219 -2.058594 0.414062 -2.09375 0.375 -2.117188 C 0.347656 -2.140625 0.300781 -2.15625 0.242188 -2.175781 C 0.183594 -2.191406 0.128906 -2.203125 0.0820312 -2.210938 L 0.0820312 -2.386719 L 1.277344 -2.453125 L 1.3125 -2.414062 L 1.3125 -0.476562 C 1.3125 -0.417969 1.324219 -0.371094 1.351562 -0.332031 C 1.375 -0.289062 1.410156 -0.261719 1.453125 -0.242188 C 1.488281 -0.226562 1.523438 -0.214844 1.5625 -0.203125 C 1.601562 -0.191406 1.640625 -0.183594 1.683594 -0.179688 L 1.683594 0 M 1.328125 -3.328125 C 1.328125 -3.207031 1.28125 -3.101562 1.183594 -3.015625 C 1.089844 -2.925781 0.976562 -2.882812 0.847656 -2.882812 C 0.714844 -2.882812 0.601562 -2.925781 0.507812 -3.015625 C 0.410156 -3.101562 0.363281 -3.207031 0.363281 -3.328125 C 0.363281 -3.453125 0.410156 -3.558594 0.507812 -3.648438 C 0.601562 -3.734375 0.714844 -3.777344 0.847656 -3.78125 C 0.980469 -3.777344 1.09375 -3.734375 1.1875 -3.648438 C 1.28125 -3.558594 1.328125 -3.453125 1.328125 -3.328125 Z "/>
</g>
<g id="glyph-0-10">
<path d="M 1.957031 -0.113281 C 1.855469 -0.0664062 1.742188 -0.0273438 1.625 0.0117188 C 1.503906 0.046875 1.359375 0.0664062 1.1875 0.0664062 C 0.933594 0.0664062 0.746094 0.00390625 0.625 -0.121094 C 0.5 -0.242188 0.4375 -0.417969 0.4375 -0.648438 L 0.4375 -2.144531 L 0 -2.144531 L 0 -2.414062 L 0.449219 -2.414062 L 0.449219 -3.152344 L 1.242188 -3.152344 L 1.242188 -2.414062 L 1.925781 -2.414062 L 1.925781 -2.144531 L 1.246094 -2.144531 L 1.246094 -0.808594 C 1.246094 -0.621094 1.273438 -0.484375 1.324219 -0.40625 C 1.378906 -0.324219 1.472656 -0.285156 1.609375 -0.285156 C 1.652344 -0.285156 1.714844 -0.289062 1.792969 -0.296875 C 1.871094 -0.300781 1.925781 -0.308594 1.957031 -0.316406 Z "/>
</g>
<g id="glyph-0-11">
<path d="M 2.933594 -0.0507812 C 2.859375 -0.0195312 2.777344 0.0078125 2.679688 0.0351562 C 2.582031 0.0585938 2.476562 0.0742188 2.371094 0.0742188 C 2.167969 0.0742188 2.023438 0.0429688 1.929688 -0.015625 C 1.835938 -0.0742188 1.769531 -0.160156 1.734375 -0.269531 L 1.722656 -0.269531 C 1.664062 -0.214844 1.613281 -0.167969 1.5625 -0.128906 C 1.507812 -0.0898438 1.453125 -0.0585938 1.394531 -0.03125 C 1.320312 0.0078125 1.246094 0.0351562 1.175781 0.0507812 C 1.105469 0.0703125 1.003906 0.078125 0.878906 0.078125 C 0.6875 0.078125 0.527344 0.0234375 0.394531 -0.0898438 C 0.257812 -0.199219 0.191406 -0.347656 0.191406 -0.53125 C 0.191406 -0.640625 0.207031 -0.730469 0.238281 -0.804688 C 0.265625 -0.878906 0.308594 -0.941406 0.363281 -1 C 0.410156 -1.050781 0.46875 -1.09375 0.53125 -1.128906 C 0.597656 -1.164062 0.667969 -1.195312 0.742188 -1.226562 C 0.890625 -1.277344 1.066406 -1.335938 1.269531 -1.390625 C 1.476562 -1.449219 1.625 -1.503906 1.722656 -1.546875 L 1.722656 -1.78125 C 1.722656 -1.824219 1.71875 -1.875 1.710938 -1.945312 C 1.703125 -2.011719 1.691406 -2.066406 1.671875 -2.113281 C 1.648438 -2.164062 1.609375 -2.207031 1.5625 -2.242188 C 1.511719 -2.28125 1.449219 -2.296875 1.371094 -2.296875 C 1.296875 -2.296875 1.238281 -2.289062 1.191406 -2.265625 C 1.140625 -2.246094 1.101562 -2.226562 1.074219 -2.203125 C 1.078125 -2.171875 1.09375 -2.121094 1.117188 -2.054688 C 1.136719 -1.988281 1.148438 -1.925781 1.148438 -1.863281 C 1.148438 -1.835938 1.140625 -1.800781 1.128906 -1.757812 C 1.113281 -1.71875 1.09375 -1.683594 1.0625 -1.660156 C 1.027344 -1.628906 0.984375 -1.601562 0.9375 -1.585938 C 0.890625 -1.566406 0.820312 -1.558594 0.722656 -1.558594 C 0.585938 -1.558594 0.484375 -1.589844 0.414062 -1.65625 C 0.34375 -1.722656 0.308594 -1.808594 0.308594 -1.914062 C 0.308594 -2.003906 0.34375 -2.085938 0.417969 -2.160156 C 0.488281 -2.230469 0.578125 -2.292969 0.679688 -2.339844 C 0.785156 -2.386719 0.902344 -2.425781 1.035156 -2.453125 C 1.167969 -2.480469 1.292969 -2.492188 1.40625 -2.492188 C 1.5625 -2.492188 1.710938 -2.484375 1.839844 -2.464844 C 1.972656 -2.445312 2.089844 -2.40625 2.195312 -2.347656 C 2.296875 -2.292969 2.378906 -2.210938 2.4375 -2.101562 C 2.496094 -1.992188 2.527344 -1.851562 2.527344 -1.675781 C 2.527344 -1.492188 2.523438 -1.273438 2.515625 -1.023438 C 2.507812 -0.769531 2.503906 -0.605469 2.503906 -0.523438 C 2.503906 -0.453125 2.515625 -0.394531 2.539062 -0.351562 C 2.558594 -0.308594 2.59375 -0.277344 2.640625 -0.257812 C 2.667969 -0.242188 2.710938 -0.234375 2.769531 -0.234375 C 2.828125 -0.230469 2.882812 -0.230469 2.933594 -0.230469 L 2.933594 -0.0507812 M 1.722656 -1.324219 C 1.628906 -1.292969 1.539062 -1.257812 1.449219 -1.214844 C 1.359375 -1.175781 1.285156 -1.136719 1.230469 -1.089844 C 1.167969 -1.046875 1.121094 -0.988281 1.085938 -0.914062 C 1.050781 -0.84375 1.035156 -0.761719 1.035156 -0.664062 C 1.035156 -0.539062 1.0625 -0.445312 1.121094 -0.386719 C 1.179688 -0.332031 1.25 -0.304688 1.335938 -0.304688 C 1.425781 -0.304688 1.5 -0.320312 1.558594 -0.359375 C 1.617188 -0.394531 1.667969 -0.441406 1.710938 -0.492188 Z "/>
</g>
<g id="glyph-0-12">
<path d="M 3.363281 0 L 1.898438 0 L 1.898438 -0.179688 C 1.929688 -0.179688 1.964844 -0.1875 2.007812 -0.191406 C 2.054688 -0.195312 2.085938 -0.203125 2.109375 -0.214844 C 2.144531 -0.234375 2.167969 -0.257812 2.183594 -0.292969 C 2.195312 -0.328125 2.203125 -0.378906 2.203125 -0.445312 L 2.203125 -1.585938 C 2.203125 -1.753906 2.175781 -1.878906 2.113281 -1.960938 C 2.050781 -2.046875 1.960938 -2.085938 1.84375 -2.085938 C 1.777344 -2.085938 1.714844 -2.078125 1.660156 -2.058594 C 1.605469 -2.039062 1.546875 -2.011719 1.496094 -1.972656 C 1.449219 -1.941406 1.410156 -1.90625 1.378906 -1.871094 C 1.351562 -1.839844 1.328125 -1.808594 1.308594 -1.78125 L 1.308594 -0.472656 C 1.308594 -0.414062 1.316406 -0.367188 1.332031 -0.328125 C 1.347656 -0.289062 1.375 -0.261719 1.414062 -0.242188 C 1.441406 -0.226562 1.472656 -0.214844 1.511719 -0.203125 C 1.550781 -0.191406 1.589844 -0.183594 1.625 -0.179688 L 1.625 0 L 0.140625 0 L 0.140625 -0.179688 C 0.183594 -0.179688 0.222656 -0.1875 0.265625 -0.191406 C 0.304688 -0.199219 0.34375 -0.203125 0.371094 -0.214844 C 0.421875 -0.234375 0.460938 -0.261719 0.476562 -0.296875 C 0.5 -0.335938 0.507812 -0.382812 0.507812 -0.445312 L 0.507812 -1.867188 C 0.507812 -1.914062 0.496094 -1.964844 0.46875 -2.015625 C 0.441406 -2.0625 0.410156 -2.101562 0.367188 -2.132812 C 0.335938 -2.152344 0.300781 -2.167969 0.253906 -2.183594 C 0.210938 -2.195312 0.160156 -2.203125 0.109375 -2.210938 L 0.109375 -2.386719 L 1.273438 -2.453125 L 1.308594 -2.414062 L 1.308594 -2.0625 L 1.320312 -2.0625 C 1.363281 -2.101562 1.417969 -2.148438 1.484375 -2.207031 C 1.550781 -2.265625 1.609375 -2.308594 1.664062 -2.347656 C 1.726562 -2.386719 1.804688 -2.417969 1.902344 -2.445312 C 2 -2.472656 2.105469 -2.488281 2.214844 -2.488281 C 2.480469 -2.488281 2.679688 -2.414062 2.8125 -2.261719 C 2.945312 -2.113281 3.011719 -1.910156 3.011719 -1.664062 L 3.011719 -0.464844 C 3.011719 -0.40625 3.019531 -0.359375 3.039062 -0.320312 C 3.054688 -0.285156 3.089844 -0.257812 3.136719 -0.238281 C 3.164062 -0.226562 3.195312 -0.214844 3.234375 -0.203125 C 3.273438 -0.191406 3.316406 -0.183594 3.363281 -0.179688 Z "/>
</g>
<g id="glyph-0-13">
<path d="M 1.535156 0.078125 C 1.308594 0.078125 1.109375 0.046875 0.9375 -0.0195312 C 0.761719 -0.0859375 0.621094 -0.175781 0.507812 -0.289062 C 0.394531 -0.40625 0.3125 -0.542969 0.257812 -0.699219 C 0.199219 -0.859375 0.171875 -1.03125 0.171875 -1.214844 C 0.171875 -1.386719 0.207031 -1.546875 0.273438 -1.699219 C 0.34375 -1.851562 0.433594 -1.988281 0.550781 -2.101562 C 0.667969 -2.222656 0.816406 -2.316406 0.992188 -2.386719 C 1.167969 -2.457031 1.363281 -2.492188 1.578125 -2.492188 C 1.875 -2.492188 2.113281 -2.4375 2.289062 -2.324219 C 2.460938 -2.210938 2.546875 -2.058594 2.546875 -1.867188 C 2.546875 -1.75 2.519531 -1.652344 2.457031 -1.582031 C 2.394531 -1.511719 2.289062 -1.476562 2.136719 -1.476562 C 2.015625 -1.476562 1.910156 -1.503906 1.828125 -1.5625 C 1.746094 -1.621094 1.707031 -1.699219 1.707031 -1.792969 C 1.707031 -1.871094 1.71875 -1.949219 1.746094 -2.027344 C 1.773438 -2.105469 1.789062 -2.167969 1.792969 -2.207031 C 1.773438 -2.234375 1.75 -2.257812 1.722656 -2.273438 C 1.695312 -2.289062 1.652344 -2.296875 1.59375 -2.296875 C 1.519531 -2.296875 1.453125 -2.28125 1.394531 -2.246094 C 1.332031 -2.210938 1.277344 -2.152344 1.226562 -2.066406 C 1.175781 -1.984375 1.136719 -1.875 1.105469 -1.738281 C 1.074219 -1.601562 1.058594 -1.4375 1.058594 -1.246094 C 1.058594 -0.957031 1.128906 -0.722656 1.261719 -0.542969 C 1.398438 -0.367188 1.5625 -0.277344 1.75 -0.277344 C 1.929688 -0.277344 2.074219 -0.320312 2.179688 -0.398438 C 2.289062 -0.480469 2.382812 -0.59375 2.464844 -0.742188 L 2.648438 -0.617188 C 2.597656 -0.515625 2.539062 -0.425781 2.46875 -0.34375 C 2.398438 -0.261719 2.3125 -0.1875 2.21875 -0.125 C 2.113281 -0.0585938 2.011719 -0.0078125 1.90625 0.0273438 C 1.796875 0.0625 1.675781 0.078125 1.535156 0.078125 Z "/>
</g>
<g id="glyph-0-14">
<path d="M 2.765625 -0.582031 C 2.710938 -0.492188 2.640625 -0.402344 2.558594 -0.320312 C 2.480469 -0.238281 2.386719 -0.167969 2.285156 -0.109375 C 2.175781 -0.046875 2.066406 0 1.953125 0.03125 C 1.84375 0.0625 1.714844 0.078125 1.570312 0.078125 C 1.328125 0.078125 1.121094 0.0429688 0.945312 -0.0234375 C 0.769531 -0.09375 0.625 -0.183594 0.511719 -0.300781 C 0.398438 -0.414062 0.3125 -0.550781 0.257812 -0.710938 C 0.203125 -0.867188 0.171875 -1.035156 0.171875 -1.21875 C 0.171875 -1.386719 0.203125 -1.546875 0.265625 -1.699219 C 0.324219 -1.851562 0.414062 -1.984375 0.523438 -2.105469 C 0.636719 -2.21875 0.773438 -2.3125 0.945312 -2.386719 C 1.113281 -2.457031 1.300781 -2.492188 1.507812 -2.492188 C 1.738281 -2.492188 1.921875 -2.464844 2.070312 -2.410156 C 2.21875 -2.355469 2.339844 -2.277344 2.433594 -2.179688 C 2.527344 -2.085938 2.59375 -1.976562 2.636719 -1.851562 C 2.679688 -1.726562 2.699219 -1.59375 2.699219 -1.453125 L 2.699219 -1.296875 L 1.050781 -1.296875 C 1.050781 -0.960938 1.113281 -0.707031 1.242188 -0.535156 C 1.371094 -0.359375 1.574219 -0.273438 1.855469 -0.273438 C 2.007812 -0.273438 2.144531 -0.316406 2.269531 -0.398438 C 2.390625 -0.484375 2.496094 -0.589844 2.582031 -0.71875 L 2.765625 -0.582031 M 1.832031 -1.511719 C 1.832031 -1.609375 1.828125 -1.710938 1.820312 -1.8125 C 1.808594 -1.914062 1.792969 -1.996094 1.765625 -2.0625 C 1.738281 -2.140625 1.703125 -2.195312 1.652344 -2.234375 C 1.605469 -2.273438 1.546875 -2.296875 1.472656 -2.296875 C 1.347656 -2.296875 1.246094 -2.230469 1.171875 -2.105469 C 1.097656 -1.976562 1.054688 -1.777344 1.050781 -1.5 Z "/>
</g>
</g>
</defs>
<g fill="rgb(97.254902%, 44.313725%, 44.313725%)" fill-opacity="1">
<use xlink:href="#glyph-0-0" x="30" y="24.584961"/>
<use xlink:href="#glyph-0-1" x="33" y="24.584961"/>
<use xlink:href="#glyph-0-2" x="35" y="24.584961"/>
<use xlink:href="#glyph-0-3" x="36" y="24.584961"/>
<use xlink:href="#glyph-0-4" x="40" y="24.584961"/>
<use xlink:href="#glyph-0-4" x="43" y="24.584961"/>
<use xlink:href="#glyph-0-5" x="46" y="24.584961"/>
<use xlink:href="#glyph-0-6" x="49" y="24.584961"/>
<use xlink:href="#glyph-0-7" x="50" y="24.584961"/>
<use xlink:href="#glyph-0-2" x="53" y="24.584961"/>
<use xlink:href="#glyph-0-8" x="54" y="24.584961"/>
<use xlink:href="#glyph-0-9" x="58" y="24.584961"/>
<use xlink:href="#glyph-0-7" x="60" y="24.584961"/>
<use xlink:href="#glyph-0-10" x="63" y="24.584961"/>
<use xlink:href="#glyph-0-11" x="65" y="24.584961"/>
<use xlink:href="#glyph-0-12" x="68" y="24.584961"/>
<use xlink:href="#glyph-0-13" x="71" y="24.584961"/>
<use xlink:href="#glyph-0-14" x="74" y="24.584961"/>
</g>
</svg>
